<?xml version="1.0" encoding="utf-8"?>
<!-- Generator: Adobe Illustrator 16.0.0, SVG Export Plug-In . SVG Version: 6.00 Build 0)  -->
<!DOCTYPE svg PUBLIC "-//W3C//DTD SVG 1.1//EN" "http://www.w3.org/Graphics/SVG/1.1/DTD/svg11.dtd">
<svg version="1.1" id="Layer_1" xmlns="http://www.w3.org/2000/svg" xmlns:xlink="http://www.w3.org/1999/xlink" x="0px" y="0px"
	 width="260.151px" height="63.167px" viewBox="280.152 0 260.151 63.167" enable-background="new 280.152 0 260.151 63.167"
	 xml:space="preserve">
<rect x="280.152" fill="#337AB7" width="260.151" height="63.083"/>
<g>
	<path fill="#FFFFFF" d="M327.245,45.284l-1.578-6.935h-7.16l-1.578,6.935h-5.111l6.803-27.586h6.934l6.821,27.586H327.245z
		 M324.708,33.821l-1.466-6.389c-0.087-0.388-0.286-1.362-0.593-2.922s-0.49-2.603-0.553-3.129c-0.163,1.078-0.37,2.264-0.621,3.561
		c-0.25,1.296-0.901,4.256-1.954,8.879H324.708z"/>
	<path fill="#FFFFFF" d="M352.659,31.284c0,4.535-0.925,8.002-2.771,10.401c-1.851,2.398-4.508,3.599-7.979,3.599h-6.728V17.811
		h7.348c3.194,0,5.682,1.181,7.46,3.542C351.77,23.714,352.659,27.024,352.659,31.284z M347.416,31.434
		c0-6.138-1.691-9.208-5.073-9.208h-2.049v18.584h1.654c1.866,0,3.244-0.78,4.134-2.34S347.416,34.566,347.416,31.434z"/>
	<path fill="#FFFFFF" d="M374.524,31.284c0,4.535-0.925,8.002-2.771,10.401c-1.85,2.398-4.508,3.599-7.979,3.599h-6.727V17.811
		h7.348c3.194,0,5.681,1.181,7.46,3.542C373.634,23.714,374.524,27.024,374.524,31.284z M369.281,31.434
		c0-6.138-1.69-9.208-5.073-9.208h-2.048v18.584h1.653c1.866,0,3.245-0.78,4.134-2.34C368.836,36.912,369.281,34.566,369.281,31.434
		z"/>
	<path fill="#FFFFFF" d="M397.24,45.284h-5.093V22.302h-5.262v-4.491h15.615v4.491h-5.261V45.284z"/>
	<path fill="#FFFFFF" d="M424.216,31.509c0,4.548-0.852,8.043-2.556,10.485c-1.704,2.443-4.141,3.664-7.31,3.664
		c-3.183,0-5.625-1.218-7.329-3.654c-1.703-2.437-2.556-5.947-2.556-10.533c0-4.547,0.853-8.033,2.556-10.457
		c1.704-2.424,4.159-3.636,7.366-3.636c3.17,0,5.6,1.218,7.291,3.655S424.216,26.962,424.216,31.509z M409.691,31.509
		c0,3.132,0.395,5.519,1.184,7.159c0.789,1.642,1.948,2.462,3.477,2.462c3.081,0,4.622-3.207,4.622-9.621s-1.528-9.621-4.585-9.621
		c-1.553,0-2.725,0.817-3.514,2.452C410.085,25.976,409.691,28.365,409.691,31.509z"/>
	<path fill="#FFFFFF" d="M447.609,21.888c-1.466,0-2.622,0.858-3.466,2.575c-0.848,1.716-1.27,4.103-1.27,7.159
		c0,6.364,1.66,9.546,4.979,9.546c1.453,0,2.976-0.464,4.566-1.391v4.547c-1.34,0.89-3.057,1.334-5.148,1.334
		c-3.095,0-5.473-1.23-7.133-3.692c-1.659-2.461-2.488-5.922-2.488-10.382c0-4.459,0.855-7.936,2.563-10.429
		c1.712-2.493,4.089-3.739,7.133-3.739c1.002,0,1.962,0.138,2.886,0.414c0.918,0.275,1.906,0.758,2.958,1.447l-1.691,4.153
		c-0.563-0.388-1.165-0.742-1.804-1.062C449.056,22.048,448.361,21.888,447.609,21.888z"/>
	<path fill="#FFFFFF" d="M469.698,45.284l-1.578-6.935h-7.159l-1.579,6.935h-5.11l6.802-27.586h6.935l6.821,27.586H469.698z
		 M467.162,33.821l-1.466-6.389c-0.088-0.388-0.286-1.362-0.593-2.922c-0.308-1.56-0.491-2.603-0.554-3.129
		c-0.163,1.078-0.369,2.264-0.62,3.561c-0.251,1.296-0.902,4.256-1.954,8.879H467.162z"/>
	<path fill="#FFFFFF" d="M482.748,34.591v10.692h-5.111V17.811h6.689c2.831,0,4.919,0.67,6.267,2.011
		c1.346,1.34,2.021,3.389,2.021,6.145c0,3.47-1.171,5.895-3.514,7.272l5.28,12.046h-5.469l-4.34-10.692H482.748z M482.748,30.194
		h1.315c1.203,0,2.067-0.341,2.593-1.024c0.526-0.683,0.79-1.701,0.79-3.054c0-1.403-0.28-2.402-0.838-2.997
		s-1.418-0.893-2.582-0.893h-1.278V30.194z"/>
	<path fill="#FFFFFF" d="M505.7,45.284h-5.092V22.302h-5.262v-4.491h15.615v4.491H505.7V45.284z"/>
</g>
</svg>
