<?xml version="1.0" encoding="utf-8"?>
<!-- Generator: Adobe Illustrator 16.0.0, SVG Export Plug-In . SVG Version: 6.00 Build 0)  -->
<!DOCTYPE svg PUBLIC "-//W3C//DTD SVG 1.1//EN" "http://www.w3.org/Graphics/SVG/1.1/DTD/svg11.dtd">
<svg version="1.1" id="Layer_1" xmlns="http://www.w3.org/2000/svg" xmlns:xlink="http://www.w3.org/1999/xlink" x="0px" y="0px"
	 width="500px" height="234.615px" viewBox="0 0 500 234.615" enable-background="new 0 0 500 234.615" xml:space="preserve">
<g>
	<g>
		<polygon points="453.877,184.574 424.667,160.586 424.667,231.888 453.877,207.899 468.077,196.236 		"/>
	</g>
	<g>
		<polygon points="499.286,196.236 455.874,160.586 455.874,184.574 470.073,196.236 455.874,207.899 455.874,231.888 		"/>
	</g>
</g>
<g>
	<g>
		<polygon points="45.409,207.899 74.62,231.888 74.62,160.586 45.409,184.574 31.209,196.237 		"/>
	</g>
	<g>
		<polygon points="0,196.237 43.413,231.888 43.413,207.899 29.213,196.237 43.413,184.574 43.413,160.586 		"/>
	</g>
</g>
<g>
	<path stroke="#000000" stroke-miterlimit="10" d="M95.256,4.095v7.736H8.228v57.052h81.226v7.736H8.228v57.051h87.028v7.736H0.49
		V4.095H95.256z"/>
	<path stroke="#000000" stroke-miterlimit="10" d="M117.678,4.095h49.318c37.906,0,68.654,30.75,68.654,68.656
		c0,37.905-30.748,68.655-68.654,68.655h-49.318V4.095z M125.416,133.67h41.58c33.65,0,60.92-27.268,60.92-60.919
		s-27.27-60.92-60.92-60.92h-41.58V133.67z"/>
	<path stroke="#000000" stroke-miterlimit="10" d="M378.366,70.623v70.783h-7.738v-11.99c-12.18,9.475-27.459,15.086-44.094,15.086
		c-39.645,0-71.748-32.105-71.748-71.751c0-39.646,32.104-71.75,71.748-71.75c18.568,0,35.393,6.962,48.156,18.566l-5.223,5.608
		c-11.408-10.25-26.299-16.439-42.934-16.439c-35.391,0-64.014,28.623-64.014,64.015c0,35.392,28.623,64.015,64.014,64.015
		c17.02,0,32.492-6.574,44.094-17.406v-41h-59.371v-7.736H378.366z"/>
	<path stroke="#000000" stroke-miterlimit="10" d="M497.29,4.095v7.736h-87.025v57.052h81.225v7.736h-81.225v57.051h87.025v7.736
		h-94.764V4.095H497.29z"/>
</g>
<g>
	<path d="M107.128,163.637c11.569,0,20.937,9.367,20.937,20.938c0,10.284-7.346,18.732-17.08,20.479l16.162,23.782h-4.408
		l-15.887-23.415H82.15v23.415h-3.675v-65.199H107.128z M124.392,184.575c0-9.549-7.714-17.264-17.264-17.264H82.15v34.437h24.978
		C116.678,201.748,124.392,194.126,124.392,184.575z"/>
	<path d="M181.502,163.637v3.675H140.18v27.09h38.566v3.674H140.18v27.088h41.322v3.673h-44.996v-65.199H181.502z"/>
	<path d="M197.66,205.421v23.415h-3.672v-65.199h28.65c11.57,0,20.936,9.367,20.936,20.938c0,11.569-9.365,20.846-20.936,20.846
		H197.66z M239.902,184.575c0-9.549-7.713-17.264-17.264-17.264H197.66v34.437h24.979
		C232.189,201.748,239.902,194.126,239.902,184.575z"/>
	<path d="M256.059,163.637h3.674v61.526h42.24v3.673h-45.914V163.637z"/>
	<path d="M369.643,228.836h-4.039l-8.727-20.018h-35.902l-8.633,20.018h-4.039l28.283-65.199h4.773L369.643,228.836z
		 M322.625,205.144h32.693l-16.346-37.647L322.625,205.144z"/>
	<path d="M386.811,200.645l-27.916-37.008h4.59l25.164,33.427l25.158-33.427h4.594l-27.916,37.008v28.191h-3.674V200.645z"/>
</g>
</svg>
