<?xml version="1.0" encoding="utf-8"?>
<!-- Generator: Adobe Illustrator 16.0.0, SVG Export Plug-In . SVG Version: 6.00 Build 0)  -->
<!DOCTYPE svg PUBLIC "-//W3C//DTD SVG 1.1//EN" "http://www.w3.org/Graphics/SVG/1.1/DTD/svg11.dtd">
<svg version="1.1" id="Layer_1" xmlns="http://www.w3.org/2000/svg" xmlns:xlink="http://www.w3.org/1999/xlink" x="0px" y="0px"
	 width="260.151px" height="63.167px" viewBox="0 0 260.151 63.167" enable-background="new 0 0 260.151 63.167"
	 xml:space="preserve">
<rect x="0" fill="#337AB7" width="260.151" height="63.083"/>
<g>
	<path fill="#FFFFFF" d="M53.639,31.753c0,4.667-0.874,8.252-2.622,10.76c-1.749,2.508-4.249,3.76-7.502,3.76
		c-3.266,0-5.772-1.25-7.521-3.75c-1.749-2.5-2.623-6.104-2.623-10.809c0-4.667,0.874-8.244,2.623-10.732
		c1.748-2.488,4.268-3.731,7.559-3.731c3.253,0,5.747,1.25,7.482,3.751C52.772,23.502,53.639,27.086,53.639,31.753z M38.733,31.753
		c0,3.213,0.404,5.663,1.215,7.346c0.81,1.686,1.999,2.527,3.567,2.527c3.162,0,4.744-3.291,4.744-9.874s-1.568-9.874-4.706-9.874
		c-1.594,0-2.796,0.839-3.605,2.517C39.137,26.074,38.733,28.526,38.733,31.753z"/>
	<path fill="#FFFFFF" d="M63.386,34.916v10.973h-5.245V17.694h6.865c2.905,0,5.048,0.688,6.43,2.063
		c1.383,1.376,2.074,3.478,2.074,6.306c0,3.561-1.202,6.049-3.605,7.463l5.419,12.361h-5.612l-4.454-10.973H63.386z M63.386,30.403
		h1.35c1.234,0,2.122-0.35,2.662-1.051s0.81-1.746,0.81-3.134c0-1.44-0.287-2.465-0.859-3.076c-0.572-0.611-1.455-0.916-2.65-0.916
		h-1.312V30.403z"/>
	<path fill="#FFFFFF" d="M96.219,31.521c0,4.654-0.949,8.212-2.844,10.673c-1.898,2.463-4.626,3.693-8.188,3.693h-6.903V17.694h7.54
		c3.278,0,5.83,1.212,7.656,3.635C95.306,23.753,96.219,27.15,96.219,31.521z M90.838,31.676c0-6.3-1.735-9.449-5.207-9.449H83.53
		v19.072h1.697c1.915,0,3.329-0.801,4.242-2.4C90.382,37.296,90.838,34.89,90.838,31.676z"/>
	<path fill="#FFFFFF" d="M113.429,45.888H100.72V17.694h12.709v4.532h-7.463v6.711h6.923v4.55h-6.923v7.811h7.463V45.888z"/>
	<path fill="#FFFFFF" d="M123.176,34.916v10.973h-5.245V17.694h6.864c2.906,0,5.049,0.688,6.431,2.063
		c1.382,1.376,2.074,3.478,2.074,6.306c0,3.561-1.202,6.049-3.606,7.463l5.419,12.361h-5.611l-4.455-10.973H123.176z
		 M123.176,30.403h1.35c1.234,0,2.121-0.35,2.661-1.051s0.81-1.746,0.81-3.134c0-1.44-0.287-2.465-0.858-3.076
		c-0.572-0.611-1.455-0.916-2.65-0.916h-1.312V30.403z"/>
	<path fill="#FFFFFF" d="M167.973,45.888h-6.402l-8.717-20.422h-0.25c0.321,1.556,0.481,3.227,0.481,5.014v15.408h-4.859V17.694
		h6.441l8.639,20.209h0.213c-0.245-1.35-0.367-2.957-0.367-4.82V17.694h4.821V45.888z"/>
	<path fill="#FFFFFF" d="M192.742,31.753c0,4.667-0.874,8.252-2.623,10.76c-1.748,2.508-4.248,3.76-7.501,3.76
		c-3.266,0-5.772-1.25-7.521-3.75c-1.749-2.5-2.623-6.104-2.623-10.809c0-4.667,0.874-8.244,2.623-10.732
		c1.748-2.488,4.268-3.731,7.559-3.731c3.253,0,5.747,1.25,7.482,3.751C191.875,23.502,192.742,27.086,192.742,31.753z
		 M177.836,31.753c0,3.213,0.404,5.663,1.215,7.346c0.81,1.686,1.999,2.527,3.567,2.527c3.162,0,4.744-3.291,4.744-9.874
		s-1.568-9.874-4.706-9.874c-1.594,0-2.796,0.839-3.605,2.517C178.24,26.074,177.836,28.526,177.836,31.753z"/>
	<path fill="#FFFFFF" d="M220.619,45.888h-6.557l-2.758-14.772c-0.425-2.018-0.727-4.403-0.906-7.154l-0.154,1.427l-0.791,5.805
		l-2.681,14.695h-6.557l-5.11-28.194h5.149l2.526,15.911c0.244,1.594,0.571,4.094,0.983,7.5c0.321-3.445,0.623-5.906,0.906-7.385
		l3.008-16.026h5.438l3.008,16.026c0.399,2.379,0.714,4.854,0.945,7.424c0.45-3.805,0.778-6.318,0.983-7.539l2.449-15.911h5.188
		L220.619,45.888z"/>
</g>
</svg>
