<?xml version="1.0" encoding="utf-8"?>
<!-- Generator: Adobe Illustrator 16.0.0, SVG Export Plug-In . SVG Version: 6.00 Build 0)  -->
<!DOCTYPE svg PUBLIC "-//W3C//DTD SVG 1.1//EN" "http://www.w3.org/Graphics/SVG/1.1/DTD/svg11.dtd">
<svg version="1.1" id="Layer_1" xmlns="http://www.w3.org/2000/svg" xmlns:xlink="http://www.w3.org/1999/xlink" x="0px" y="0px"
	 width="284px" height="112px" viewBox="0 0 284 112" enable-background="new 0 0 284 112" xml:space="preserve">
<g>
	<g>
		<path d="M56.921,15.238c2.316,0,3.476-0.6,3.476-1.81c0-1.459-1.624-1.553-4.36-1.925c-3.384-0.462-5.054-1.693-5.054-3.846
			c0-2.483,2.32-4.337,6.262-4.337c2.526,0,4.403,0.441,5.474,0.441c0.184,0,0.368-0.023,0.577-0.118l-0.855,3.501
			c-1.344-0.859-3.158-1.344-5.315-1.344c-1.691,0-2.571,0.485-2.571,1.392c0,1.346,1.599,1.206,4.519,1.737
			c3.294,0.604,4.937,1.739,4.937,4.128c0,2.97-2.475,4.707-7.067,4.707c-2.088,0-3.641-0.324-4.5-0.324
			c-0.235,0-0.462,0.046-0.696,0.138l-0.855-3.896C52.978,14.728,54.951,15.238,56.921,15.238z"/>
		<path d="M98.36,17.441h-5.731c0.836-0.37,1.16-1.135,1.16-2.412V5.962c0-1.204-0.37-1.971-1.16-2.318h8.118
			c4.22,0,6.329,1.207,6.329,4.404c0,2.828-2.109,4.5-6.193,4.5h-3.706v2.481C97.177,16.306,97.545,17.094,98.36,17.441z
			 M100.536,10.207c1.971,0,2.945-0.673,2.945-2.136c0-1.482-0.974-2.061-3.085-2.061h-3.219v4.197H100.536z"/>
		<path d="M143.737,17.79c-5.172,0-8.089-2.761-8.089-7.073c0-4.383,3.056-7.397,8.089-7.397c5.17,0,8.116,2.69,8.116,7.232
			C151.854,14.728,148.766,17.79,143.737,17.79z M148.258,10.345c0-2.874-1.597-4.496-4.335-4.496c-3.014,0-4.705,1.781-4.705,4.939
			c0,2.828,1.599,4.45,4.332,4.45C146.545,15.238,148.258,13.451,148.258,10.345z"/>
		<path d="M186.45,17.441h-5.727c0.834-0.37,1.158-1.135,1.158-2.412V6.01c0-1.252-0.352-1.994-1.158-2.367h8.143
			c1.779,0,3.196,0,4.216,0.325c1.6,0.514,2.619,1.924,2.619,3.756c0,1.948-1.321,3.411-3.756,3.873
			c1.184,0.533,1.787,1.321,2.412,2.295c0.858,1.321,1.484,2.667,2.784,3.549h-5.915c0.279-0.28,0.422-0.506,0.422-0.811
			c0-0.696-0.445-1.645-1.394-2.805c-0.905-1.116-1.997-1.626-3.384-1.626h-1.604v2.83C185.268,16.306,185.64,17.094,186.45,17.441z
			 M188.956,9.835c2.201,0,3.132-0.441,3.132-1.923c0-1.486-0.931-1.902-3.132-1.902h-3.688v3.825H188.956z"/>
		<path d="M230.049,15.796c0-0.069,0-0.349,0-0.767V6.01h-0.673c-1.901,0-3.504,0.229-5.055,1.183
			c0.462-1.743,0.854-2.69,0.854-2.993c0-0.163-0.089-0.347-0.229-0.557h13.632c-0.163,0.209-0.232,0.394-0.232,0.557
			c0,0.282,0.374,1.231,0.856,2.993c-1.548-0.953-3.15-1.183-5.052-1.183h-0.723v9.019c0,1.139,0.489,2.132,1.257,2.412h-5.751
			C229.63,17.138,230.049,16.421,230.049,15.796z"/>
	</g>
	<g>
		<g>
			<path d="M42.055,53.799c0.004-2.951-0.075-7.052-4.578-7.119c-2.941-0.046-4.506,1.917-4.511,4.46c0,1.35,0.169,2.705,1.38,3.802
				c1.294,1.261,4.581,2.164,6.483,2.603c5.539,1.248,12.988,2.872,17.662,5.442c2.684,1.499,4.676,3.299,5.71,5.926
				c1.208,2.69,1.72,5.686,1.712,8.634c0,0.099,0,0.195,0,0.293c-0.019,12.169-6.398,21.438-28.455,24.256
				c-9.425,1.177-19.342,1.024-26.829-3.787c0.004-6.487,0.008-12.974,0.011-19.461c7.506-0.568,15.02-1.105,22.544-1.595
				c-0.011,4.053-0.101,7.077,0.677,8.434c0.771,1.281,2.412,1.996,4.146,1.844c3.114-0.285,4.502-3.112,4.504-5.51
				c0.015-6.813-4.743-7.088-11.141-8.154C17.37,71.493,9.528,68.567,9.534,52.783c0-0.535,0-1.07,0.006-1.611
				c0.343-7.798,1.639-11.696,7.7-15.789c4.937-3.305,12.12-3.64,19.049-3.291c10.049,0.512,18.97,2.676,27.37,7.817
				c-0.012,4.985-0.022,9.968-0.033,14.953c-7.196,0.062-14.393,0.119-21.574,0.177C42.055,54.631,42.055,54.212,42.055,53.799z"/>
			<path d="M28.439,109.474c-8.716,0-15.737-1.79-21.467-5.473l-3.115-1.998L3.88,72.576l5.407-0.412
				c-4.025-4.009-6.523-10.027-6.519-19.381l0.006-1.91c0.408-9.076,2.282-15.434,10.68-21.096
				c4.655-3.116,10.628-4.559,18.832-4.559c1.444,0,2.897,0.044,4.341,0.111c12.037,0.617,21.748,3.413,30.562,8.806l3.244,1.983
				l-0.059,25.456l-2.834,0.023c1.238,1.41,2.197,2.963,2.895,4.677c1.5,3.403,2.257,7.202,2.245,11.291v0.341
				c-0.027,17.577-11.591,27.994-34.366,30.9C34.714,109.258,31.491,109.474,28.439,109.474z M17.401,94.188
				c4.695,1.84,10.856,2.234,19.223,1.194c22.5-2.874,22.512-12.422,22.523-17.554v-0.282c0.004-2.198-0.382-4.22-1.122-5.868
				l-0.122-0.284c-0.243-0.621-0.761-1.407-2.719-2.506c-3.622-1.994-10.335-3.499-15.237-4.609l-0.606-0.132
				c-6.028-1.394-8.387-3.093-9.631-4.271c-3.518-3.263-3.512-7.385-3.507-8.744c0.013-6.502,4.711-11.222,11.18-11.222l0.194,0.002
				c2.792,0.041,8.628,1.036,10.589,8.312l8.706-0.073l0.008-4.272c-6-3-12.751-4.611-20.93-5.029
				c-1.216-0.062-2.447-0.098-3.662-0.098c-5.25,0-9.046,0.759-11.28,2.257c-3.462,2.333-4.396,3.667-4.707,10.319v1.455
				c-0.004,10.029,2.268,12.051,16.2,14.411l1.227,0.195c5.444,0.885,15.582,2.519,15.554,14.646
				c-0.012,6.527-4.5,11.673-10.664,12.233c-0.37,0.033-0.725,0.05-1.081,0.05c-3.927,0-7.558-1.967-9.468-5.131
				c-0.827-1.446-1.246-2.985-1.455-4.711c-3.075,0.209-6.143,0.428-9.213,0.651V94.188z"/>
		</g>
		<g>
			<path d="M97.171,61.6c0.006-2.001,0.504-5.427-3.442-5.401c-3.957,0.036-3.468,3.49-3.472,5.505
				c-0.013,6.351-0.027,12.706-0.038,19.058c-0.002,2.016-0.506,5.496,3.448,5.309c3.955-0.177,3.472-3.571,3.474-5.574
				c0.002-1.845,0.006-3.691,0.006-5.539c6.072-0.177,12.148-0.321,18.224-0.428c-0.006,5.353-0.012,10.704-0.017,16.059
				c-4.88,3.329-12.733,5.403-20.366,6.014c-7.559,0.598-14.896-0.243-18.624-2.908c-5.213-3.683-4.993-9.059-4.98-14.629
				c0.015-5.887,0.029-11.775,0.04-17.669c0.013-4.559,0.729-9.036,5.177-12.087c4.092-2.815,10.797-3.971,17.918-3.708
				c7.194,0.266,14.811,2.098,20.878,5.294c-0.002,4.452-0.008,8.907-0.017,13.361c-6.072,0.069-12.146,0.149-18.215,0.257
				C97.169,63.536,97.169,62.566,97.171,61.6z"/>
			<path d="M90.456,103.548c-5.445,0-12.997-0.753-18.032-4.352c-7.856-5.548-7.827-13.628-7.807-19.526l0.044-18.288
				c0.006-3.313,0.027-12.104,8.112-17.653c5.923-4.076,14.033-4.935,19.796-4.935c0.727,0,1.463,0.017,2.201,0.043
				c8.497,0.313,16.94,2.469,23.781,6.065l3.622,1.904l-0.057,47.36l-2.944,2.009c-5.571,3.8-14.186,6.413-23.64,7.174
				C93.81,103.483,92.104,103.548,90.456,103.548z M85.819,52.925c-2.272,0.435-4.141,1.104-5.382,1.961
				c-1.484,1.018-2.237,2.303-2.24,6.527l-0.044,18.306c-0.021,5.54,0.228,7.114,2.111,8.444c0.71,0.505,2.554,1.238,5.743,1.61
				c-2.696-2.962-2.608-6.724-2.564-8.559l0.01-0.465l0.038-19.062l-0.011-0.46C83.447,59.448,83.374,55.866,85.819,52.925z
				 M103.918,81.541c-0.023,3.221-0.813,5.528-1.954,7.177c2.472-0.562,4.732-1.283,6.625-2.116l0.004-5.17
				C107.036,81.464,105.477,81.503,103.918,81.541z M101.968,53.303c1.041,1.413,1.549,2.945,1.787,4.329
				c1.626-0.019,3.25-0.042,4.874-0.065v-2.32C106.541,54.444,104.292,53.788,101.968,53.303z"/>
		</g>
		<g>
			<path d="M166.256,80.759c0.012,11.907-9.176,14.537-22.553,14.505c-13.373-0.014-22.562-2.67-22.553-14.557
				c0.011-6.73,0.013-13.463,0.02-20.197c0.015-11.878,9.194-14.812,22.533-14.806c13.345-0.008,22.52,2.924,22.531,14.825
				C166.247,67.271,166.252,74.014,166.256,80.759z M140.024,81.246c0,0.334-0.209,3.722,3.679,3.724
				c3.89,0.011,3.679-3.379,3.679-3.718c-0.004-7.191-0.004-14.395-0.006-21.586c0-0.333,0.213-3.673-3.673-3.677
				c-3.886,0-3.67,3.34-3.67,3.674C140.033,66.855,140.033,74.055,140.024,81.246z"/>
			<path d="M143.958,102.03h-0.271c-7.244-0.004-29.32-0.027-29.299-21.33l0.019-20.196c0.017-14.316,9.865-21.572,29.275-21.572
				c19.467,0,29.31,7.267,29.323,21.589l0.023,20.218c0.004,10.191-5.272,15.218-9.703,17.646
				C158.724,100.906,152.746,102.03,143.958,102.03z M152.043,53.067c1.406,1.82,2.146,4.15,2.104,6.672l0.003,21.513
				c0.045,2.519-0.723,4.885-2.179,6.726c2.06-0.323,3.664-0.814,4.854-1.467c1.292-0.706,2.67-1.789,2.665-5.748l-0.021-20.232
				C159.469,57.732,159.465,54.405,152.043,53.067z M135.359,53.073c-7.412,1.34-7.42,4.655-7.422,7.444l-0.017,20.195
				c-0.002,2.98-0.006,6.042,7.509,7.249c-1.446-1.842-2.211-4.215-2.167-6.787l0.002-21.512
				C133.223,57.203,133.961,54.894,135.359,53.073z"/>
		</g>
		<g>
			<path d="M174.068,59.914c-0.002-1.797,0.207-3.607-2.055-4.742c-0.004-2.851-0.01-5.7-0.01-8.551
				c8.205-0.015,16.42-0.038,24.625-0.073c5.145-0.019,12.05-0.136,16.286,2.577c6.923,4.442,5.947,12.708,5.953,14.008
				c0,1.361,0.007,2.715,0.009,4.076c0.021,9.814-3.767,15.567-19.219,14.769c-2.234-0.103-4.47-0.201-6.71-0.292
				c0.007,2.413-0.198,4.237,2.062,5.505c0.006,2.92,0.01,5.84,0.017,8.757c-7.652-0.472-15.308-0.841-22.969-1.111
				c-0.002-2.852-0.002-5.698-0.008-8.551c2.261-1.057,2.041-2.872,2.041-4.673C174.087,74.378,174.074,67.15,174.068,59.914z
				 M192.933,71.28c0.591,0.015,1.172,0.031,1.764,0.049c5.574,0.168,5.36-2.445,5.348-7.093c-0.01-4.702,0.194-7.317-5.375-7.365
				c-0.587-0.011-1.178-0.013-1.762-0.02C192.913,61.662,192.926,66.469,192.933,71.28z"/>
			<path d="M201.802,103.146l-7.193-0.443c-7.528-0.466-15.191-0.834-22.785-1.102l-6.521-0.229l-0.026-19.385l2.054-0.959
				l-0.029-20.65l-2.048-1.026l-0.018-19.481l6.756-0.017c8.202-0.017,16.407-0.037,24.603-0.073l1.91-0.004
				c5.982,0,12.807,0.282,18.065,3.651c4.393,2.817,9.524,8.498,9.074,19.535l-0.009,0.23l0.009,4.003
				c0.005,4.45-0.541,10.927-5.38,15.774c-4.025,4.029-10.023,5.923-18.481,5.844L201.802,103.146z M179.461,88.356
				c2.646,0.115,5.295,0.238,7.938,0.381c-1.233-2.456-1.219-4.99-1.212-6.521v-0.519l-0.055-28.342
				c-2.19,0.004-4.381,0.011-6.573,0.015c1.307,2.423,1.285,4.918,1.272,6.162v0.369l0.029,22.069
				C180.877,83.147,180.901,85.823,179.461,88.356z M203.861,53.485c2.947,3.234,2.949,7.934,2.949,10.244l0.002,0.977
				c0.013,3.228,0.026,7.25-3.04,10.329c-0.078,0.081-0.162,0.159-0.239,0.234c3.538-0.115,6.057-0.766,7.154-1.86
				c0.949-0.953,1.423-3.032,1.421-6.189l-0.004-4.077c0-0.172,0.004-0.418,0.017-0.735c0.157-3.877-0.72-6.212-2.856-7.586
				C208.068,54.058,205.968,53.68,203.861,53.485z"/>
		</g>
		<g>
			<path d="M274.998,79.986c0,8.22,0.003,16.446,0.013,24.667c-17.275-2.69-34.616-4.868-52.013-6.515
				c-0.007-3.528-0.015-7.059-0.022-10.589c2.595-1.202,2.349-3.462,2.347-5.706c-0.021-8.983-0.039-17.965-0.062-26.956
				c-0.002-2.232,0.234-4.483-2.366-5.869c-0.01-3.53-0.019-7.061-0.027-10.595c17.391-0.424,34.768-1.036,52.113-1.967
				c0,7.694,0.006,15.383,0.009,23.078c-6.635-0.115-13.276-0.232-19.93-0.352c0-0.648,0-1.3-0.004-1.95
				c-0.002-4.367-0.657-6.164-6.501-6.141c-0.424,0-0.86,0.002-1.289,0.002c0.002,3.754,0.011,7.51,0.015,11.268
				c4.569,0.12,9.141,0.239,13.701,0.366c0.008,4.25,0.012,8.505,0.018,12.754c-4.564-0.286-9.13-0.564-13.696-0.821
				c0.006,4.242,0.017,8.49,0.019,12.735c0.436,0.039,0.865,0.079,1.301,0.114c6.485,0.602,6.397-1.653,6.473-6.909
				c-0.004-0.698-0.004-1.401-0.008-2.105C261.732,78.958,268.372,79.454,274.998,79.986z"/>
			<path d="M281.782,112.558l-7.812-1.219c-17.134-2.668-34.495-4.843-51.606-6.464l-6.118-0.577l-0.044-21.066l2.355-1.091
				l-0.006-0.28l-0.057-26.952v-0.567l-2.362-1.258l-0.048-21.256l6.62-0.165c19.084-0.47,36.066-1.114,51.911-1.962l7.13-0.385
				l0.015,37.104l-6.887-0.118c-2.37-0.041-4.747-0.08-7.121-0.12l0.013,6.456c2.587,0.195,5.184,0.399,7.775,0.606l6.223,0.497
				L281.782,112.558z M250.506,94.372c5.916,0.743,11.833,1.551,17.73,2.414l-0.002-10.542c-2.255-0.175-4.506-0.343-6.768-0.509
				C260.688,89.836,258.25,94.354,250.506,94.372z M229.751,92.004c3.6,0.366,7.202,0.757,10.811,1.173l-0.077-48.483
				c-3.541,0.117-7.15,0.222-10.833,0.326v0.945c2.414,3.047,2.39,6.64,2.377,8.448v0.464l0.06,27.419
				c0.018,1.674,0.065,5.358-2.337,8.379V92.004z M261.346,52.53c2.289,0.038,4.579,0.082,6.872,0.124v-9.076
				c-5.904,0.287-11.968,0.55-18.249,0.786C257.761,44.803,260.429,48.901,261.346,52.53z"/>
		</g>
	</g>
	<path fill="#026CB6" d="M41.846,54.058c0.006-2.945-0.061-7.035-4.559-7.156c-2.935-0.071-4.494,1.875-4.511,4.433
		c-0.008,1.355,0.167,2.713,1.374,3.827c1.283,1.271,4.567,2.188,6.467,2.634c5.526,1.264,12.942,2.897,17.609,5.438
		c2.669,1.488,4.645,3.259,5.677,5.851c1.187,2.656,1.695,5.613,1.666,8.525c0,0.101,0,0.194,0,0.299
		c-0.059,12.019-6.454,21.259-28.386,24.626c-9.381,1.394-19.229,1.529-26.681-3.244c0-6.64,0-13.283,0-19.914
		c7.468-0.638,14.959-1.237,22.461-1.79c-0.02,4.076-0.115,7.125,0.651,8.486c0.771,1.28,2.408,1.977,4.132,1.793
		c3.098-0.328,4.485-3.181,4.496-5.587c0.029-6.815-4.709-7.048-11.092-8.088C17.207,71.883,9.384,68.879,9.384,52.779
		c0-0.548,0-1.1,0-1.654c0.351-7.94,1.639-11.886,7.694-15.897c4.933-3.24,12.123-3.407,19.047-2.932
		c10.043,0.698,18.957,3.001,27.328,8.151c-0.025,4.922-0.054,9.832-0.085,14.761c-7.18,0.04-14.361,0.071-21.533,0.094
		C41.846,54.888,41.846,54.469,41.846,54.058z"/>
	<path fill="#FFFFFF" d="M26.918,104.586c-6.987,0-12.572-1.402-17.066-4.282l-0.558-0.351V78.272l1.104-0.097
		c7.618-0.656,15.181-1.256,22.475-1.793l1.3-0.099l-0.011,2.397c-0.019,3.135-0.038,5.844,0.502,6.797
		c0.5,0.832,1.682,1.328,2.953,1.189c2.692-0.288,3.411-2.997,3.416-4.396c0.025-5.087-2.667-5.728-8.76-6.687l-1.315-0.203
		c-13.339-2.213-22.78-5.125-22.78-22.604v-1.654c0.351-8.003,1.674-12.555,8.235-16.902c3.413-2.245,8.149-3.328,14.489-3.328
		c1.599,0,3.336,0.063,5.309,0.199c11.032,0.765,19.89,3.413,27.876,8.327l0.577,0.356l-0.002,0.675
		c-0.029,4.922-0.054,9.838-0.09,14.76l-0.004,1.194l-1.193,0.005c-7.182,0.041-14.362,0.076-21.535,0.096l-1.24,0.005l0.027-1.238
		c0.008-0.409,0.008-0.814,0.008-1.216c0.013-3.973-0.491-5.871-3.381-5.951c-0.002,0-0.002,0-0.004,0
		c-2.945,0-3.261,2.264-3.267,3.238c-0.004,1.242,0.157,2.165,0.984,2.928c0.807,0.799,3.012,1.666,5.926,2.343l0.708,0.163
		c5.609,1.286,12.59,2.882,17.202,5.399c3.204,1.779,5.171,3.827,6.22,6.461c1.169,2.608,1.785,5.729,1.754,8.982v0.287
		c-0.075,14.551-9.418,22.749-29.41,25.817C33.471,104.305,30.055,104.586,26.918,104.586z M11.708,98.619
		c4.002,2.391,8.99,3.554,15.21,3.554c3.02,0,6.318-0.272,10.084-0.835c24.162-3.705,27.318-14.471,27.362-23.435v-0.294
		c0.025-2.912-0.515-5.691-1.568-8.033c-0.859-2.158-2.446-3.776-5.159-5.287c-4.312-2.35-11.113-3.905-16.581-5.158l-0.707-0.163
		c-2.433-0.565-5.625-1.537-7.052-2.952c-1.537-1.413-1.737-3.165-1.727-4.688c0.017-3.371,2.251-5.635,5.556-5.635
		c5.944,0.154,5.93,5.702,5.925,8.366c0,0.009,0,0.021,0,0.031c6.365-0.022,12.739-0.05,19.112-0.085
		c0.029-4.297,0.055-8.588,0.078-12.879c-7.491-4.477-15.837-6.903-26.2-7.625c-1.915-0.129-3.597-0.194-5.142-0.194
		c-5.854,0-10.156,0.958-13.162,2.928c-5.756,3.817-6.822,7.532-7.154,14.949v1.595c0,15.653,7.848,18.082,20.763,20.219l1.3,0.207
		c5.811,0.914,10.833,1.703,10.798,9.078c-0.011,2.982-1.758,6.376-5.571,6.784c-2.223,0.234-4.301-0.719-5.298-2.372
		c-0.857-1.516-0.857-4.026-0.834-7.811c-6.525,0.486-13.253,1.021-20.036,1.604V98.619z"/>
	<path fill="#026CB6" d="M96.841,61.844c0.004-1.952,0.531-5.294-3.421-5.264c-3.938,0.023-3.47,3.4-3.487,5.37
		c-0.038,6.205-0.069,12.415-0.117,18.634c-0.019,1.971-0.531,5.378,3.409,5.162c3.944-0.214,3.484-3.523,3.491-5.477
		c0.014-1.795,0.025-3.597,0.036-5.4c6.055-0.207,12.116-0.368,18.184-0.491c-0.034,5.19-0.063,10.388-0.105,15.592
		c-4.885,3.27-12.727,5.357-20.339,6.051c-7.533,0.684-14.848-0.024-18.54-2.596c-5.181-3.549-4.942-8.87-4.901-14.358
		c0.03-5.807,0.071-11.607,0.103-17.4c0.034-4.494,0.761-8.898,5.213-11.872c4.095-2.749,10.795-3.835,17.911-3.555
		c7.169,0.29,14.769,2.1,20.811,5.204c-0.031,4.316-0.064,8.636-0.085,12.958c-6.069,0.064-12.123,0.161-18.182,0.273
		C96.826,63.729,96.834,62.786,96.841,61.844z"/>
	<path fill="#FFFFFF" d="M89.234,97.474c-4.374,0-10.346-0.53-13.974-3.06c-5.522-3.781-5.47-9.366-5.42-14.771l0.105-17.985
		c0.033-4.486,0.74-9.521,5.75-12.87c4.036-2.707,10.839-4.076,18.629-3.754c7.528,0.299,15.297,2.243,21.315,5.334l0.663,0.339
		l-0.008,0.742c-0.029,4.337-0.065,8.647-0.088,12.956l-0.006,1.19l-1.187,0.013c-6.065,0.068-12.115,0.162-18.171,0.275
		l-1.239,0.022l0.045-4.707c0.028-1.04,0.062-2.336-0.508-2.927c-0.315-0.323-0.877-0.487-1.668-0.487
		c-0.853,0.006-1.43,0.182-1.766,0.518c-0.604,0.623-0.585,1.954-0.566,3.022v0.635l-0.034,6.225
		c-0.03,4.135-0.052,8.269-0.083,12.409l-0.017,0.621c-0.03,1.053-0.069,2.355,0.48,2.92c0.268,0.276,0.731,0.412,1.388,0.412
		l0.284-0.007c2.188-0.117,2.4-1.208,2.358-3.668l-0.009-0.606l0.051-6.567l1.156-0.038c6.061-0.204,12.125-0.364,18.201-0.49
		l1.235-0.025l-0.021,3.541c-0.029,4.429-0.054,8.857-0.088,13.295l-0.006,0.641l-0.531,0.353
		c-4.711,3.149-12.522,5.486-20.903,6.25C92.769,97.388,90.963,97.474,89.234,97.474z M92.106,47.405
		c-6.458,0-11.813,1.203-15.065,3.39c-4.063,2.717-4.653,6.835-4.684,10.875l-0.104,17.991c-0.048,5.207-0.085,9.707,4.381,12.77
		c2.437,1.696,6.908,2.629,12.601,2.629c1.658,0,3.386-0.079,5.145-0.24c7.685-0.705,14.811-2.744,19.25-5.507
		c0.033-4.223,0.059-8.434,0.082-12.638l0.011-1.063c-5.261,0.112-10.518,0.248-15.77,0.425l-0.027,4.246l0.006,0.548
		c0.033,1.904,0.096,5.865-4.638,6.122c-1.548,0.079-2.724-0.299-3.539-1.135c-1.258-1.298-1.199-3.246-1.162-4.676l0.017-0.568
		c0.033-4.137,0.056-8.271,0.08-12.401l0.039-6.232l-0.006-0.585c-0.019-1.432-0.05-3.4,1.263-4.741
		c0.8-0.817,1.952-1.235,3.43-1.244l0,0c1.525,0,2.669,0.41,3.455,1.221c1.286,1.321,1.229,3.259,1.191,4.676l-0.023,2.178
		c5.255-0.096,10.503-0.173,15.766-0.236c0.019-3.676,0.044-7.347,0.073-11.023c-5.618-2.742-12.73-4.462-19.645-4.739
		C93.518,47.421,92.809,47.405,92.106,47.405z"/>
	<path fill="#026CB6" d="M165.721,80.374c-0.05,11.532-9.242,14.021-22.594,14.006c-13.354,0.011-22.513-2.501-22.444-14.037
		c0.046-6.529,0.088-13.055,0.128-19.577c0.073-11.521,9.257-14.339,22.568-14.339c13.322-0.006,22.471,2.815,22.421,14.354
		C165.776,67.312,165.744,73.845,165.721,80.374z M139.529,80.821c-0.008,0.331-0.234,3.602,3.651,3.602
		c3.88,0.006,3.686-3.271,3.686-3.591c0.041-6.963,0.081-13.928,0.114-20.893c0-0.317,0.227-3.556-3.645-3.556
		c-3.891,0.007-3.686,3.229-3.686,3.556C139.607,66.904,139.569,73.857,139.529,80.821z"/>
	<path fill="#FFFFFF" d="M143.263,95.587h-0.138c-10.336,0-16.502-1.6-20.07-5.188c-2.435-2.447-3.606-5.741-3.578-10.062
		l0.129-19.577c0.083-13.774,12.75-15.538,23.772-15.538c10.147,0,16.28,1.637,19.936,5.309c2.469,2.477,3.715,5.927,3.693,10.255
		l-0.084,19.592C166.87,93.778,154.932,95.587,143.263,95.587z M143.434,47.633c-15.168,0-21.355,3.804-21.416,13.137l-0.129,19.582
		c-0.019,3.646,0.922,6.375,2.88,8.344c3.075,3.097,8.714,4.479,18.283,4.479h0.211c15.253,0,21.212-3.596,21.25-12.811l0.08-19.586
		c0.018-3.717-0.962-6.51-2.985-8.547C158.482,49.096,152.708,47.633,143.434,47.633z M143.191,85.631L143.191,85.631
		c-1.578,0-2.807-0.451-3.67-1.342c-0.817-0.851-1.248-2.084-1.198-3.472l0.119-20.885c-0.029-1.77,0.65-2.836,1.229-3.426
		c0.861-0.88,2.096-1.325,3.662-1.328h0.003c1.557,0,2.777,0.446,3.638,1.318c0.574,0.59,1.253,1.654,1.211,3.416
		c-0.027,6.998-0.071,13.957-0.109,20.92c0.025,1.805-0.662,2.883-1.246,3.474C145.969,85.188,144.742,85.631,143.191,85.631z
		 M143.336,57.592c-0.898,0-1.551,0.207-1.948,0.608c-0.249,0.255-0.548,0.757-0.533,1.672l-0.119,20.957
		c-0.027,0.812,0.157,1.4,0.52,1.78c0.391,0.401,1.038,0.606,1.926,0.606c0.893,0,1.536-0.2,1.93-0.602
		c0.259-0.264,0.563-0.776,0.55-1.721c0.039-7.037,0.081-13.997,0.114-20.962c0.018-0.993-0.275-1.487-0.524-1.745
		C144.863,57.795,144.218,57.592,143.336,57.592z"/>
	<path fill="#026CB6" d="M173.652,60.188c0-1.742,0.215-3.502-2.032-4.602c0.009-2.766,0.018-5.529,0.023-8.296
		c8.202-0.036,16.393-0.08,24.586-0.15c5.134-0.04,12.025-0.195,16.245,2.45c6.885,4.333,5.894,12.49,5.904,13.772
		c-0.011,1.339-0.011,2.67-0.011,4.004c-0.006,9.674-3.808,15.275-19.251,14.37c-2.239-0.119-4.47-0.232-6.704-0.337
		c-0.004,2.349-0.224,4.126,2.034,5.374c-0.007,2.847-0.007,5.687-0.022,8.534c-7.646-0.552-15.294-0.975-22.95-1.273
		c0.011-2.763,0.017-5.525,0.029-8.285c2.26-1.014,2.06-2.771,2.069-4.517C173.596,74.217,173.617,67.206,173.652,60.188z
		 M192.433,71.271c0.589,0.016,1.177,0.037,1.766,0.054c5.563,0.182,5.365-2.367,5.376-6.906c0.006-4.598,0.222-7.152-5.344-7.195
		c-0.584-0.009-1.173-0.009-1.757-0.02C192.456,61.897,192.449,66.586,192.433,71.271z"/>
	<path fill="#FFFFFF" d="M195.622,96.601l-1.279-0.093c-7.541-0.543-15.249-0.97-22.912-1.271l-1.16-0.047l0.027-10.226l0.706-0.318
		c1.319-0.591,1.371-1.346,1.363-2.999l-0.002-0.419c0.022-7.014,0.049-14.03,0.079-21.047v-0.433
		c0.017-1.666-0.026-2.428-1.354-3.078l-0.675-0.331l0.029-10.254l1.195-0.004c8.202-0.036,16.39-0.08,24.582-0.153l2.612-0.014
		c5.224,0,10.563,0.321,14.282,2.652c4.573,2.877,6.753,7.714,6.483,14.371c-0.009,0.178-0.017,0.322-0.017,0.412
		c-0.007,1.354-0.007,2.688-0.007,4.015c-0.012,10.984-5.199,15.67-17.364,15.672h-0.002c-0.997,0-2.049-0.031-3.166-0.099
		c-1.807-0.096-3.618-0.188-5.429-0.273c0.01,1.677,0.201,2.381,1.417,3.054l0.626,0.345l-0.011,3.558
		c-0.002,1.894-0.007,3.79-0.015,5.689L195.622,96.601z M172.688,92.873c6.87,0.275,13.768,0.663,20.537,1.138
		c0.004-1.47,0.006-2.931,0.008-4.395l0.007-2.178c-2.077-1.481-2.06-3.521-2.036-5.503l0.011-1.804l1.258,0.062
		c2.237,0.105,4.472,0.216,6.71,0.336c15.025,0.876,17.973-4.35,17.977-13.164c0-1.336,0-2.673,0.013-4.015
		c0-0.103,0.007-0.28,0.017-0.509c0.083-2.137,0.351-8.64-5.353-12.229c-3.206-2.011-8.373-2.282-13.001-2.282l-2.594,0.012
		c-7.796,0.069-15.588,0.115-23.396,0.148l-0.013,6.396c2.065,1.364,2.043,3.377,2.031,4.887l-0.007,0.413
		c-0.029,7.023-0.057,14.031-0.077,21.048v0.396c0.009,1.519,0.017,3.541-2.071,4.841L172.688,92.873z M194.746,72.541
		C194.746,72.541,194.748,72.541,194.746,72.541c-0.188,0-0.382-0.002-0.587-0.007l-2.937-0.094l0.048-16.464l2.982,0.04
		c6.555,0.052,6.542,3.698,6.529,7.921v0.944C200.782,68.82,200.777,72.541,194.746,72.541z M193.643,70.1l1.104,0.028
		c3.618,0,3.618-1.11,3.618-5.246l0.004-0.955c0.016-4.305,0.019-5.467-4.146-5.494l-0.548-0.009L193.643,70.1z"/>
	<path fill="#026CB6" d="M274.466,80.422c0,8.355,0.004,16.698,0.004,25.02c-17.284-3.161-34.648-5.697-52.044-7.614
		c0-3.468,0.004-6.941,0.004-10.415c2.61-1.153,2.354-3.391,2.362-5.596c0-8.864,0.017-17.741,0.017-26.628
		c0-2.211,0.242-4.437-2.346-5.793c0-3.486,0-6.981,0-10.473c17.358-0.619,34.692-1.499,52.007-2.834
		c-0.004,7.854-0.004,15.703-0.004,23.541c-6.631-0.079-13.259-0.169-19.902-0.258c-0.013-0.657,0-1.314,0-1.971
		c-0.013-4.385-0.648-6.19-6.483-6.12c-0.43,0.002-0.863,0.011-1.296,0.015c0,3.76,0,7.516,0,11.277
		c4.566,0.109,9.131,0.23,13.696,0.339c-0.007,4.289-0.007,8.58,0,12.86c-4.565-0.321-9.13-0.626-13.696-0.913
		c0,4.241,0,8.476,0,12.714c0.441,0.036,0.871,0.086,1.296,0.134c6.489,0.69,6.403-1.569,6.483-6.838c0-0.711,0-1.405,0-2.117
		C261.207,79.271,267.844,79.833,274.466,80.422z"/>
	<path fill="#FFFFFF" d="M275.676,106.888l-1.419-0.259c-17.221-3.146-34.701-5.705-51.967-7.601l-1.073-0.116l0.007-12.29
		l0.722-0.312c1.588-0.705,1.654-1.833,1.639-3.926v-0.572l0.016-27.172c0.021-2.146-0.043-3.312-1.699-4.178l-0.643-0.341v-12.37
		l1.162-0.04c19.027-0.679,36.024-1.605,51.964-2.832l1.296-0.103l-0.004,1.309c-0.005,7.854-0.005,15.703-0.005,23.541v1.224
		l-1.223-0.014c-6.628-0.083-13.257-0.172-19.902-0.263l-1.177-0.017l-0.014-1.178c-0.004-0.441-0.002-0.884-0.002-1.329
		l0.002-0.653c-0.009-3.812-0.22-4.916-4.958-4.916l-0.403,0.004v8.906l13.694,0.34l-0.005,1.179c-0.006,4.287-0.006,8.578,0,12.855
		l0.005,1.297l-1.292-0.089c-4.134-0.293-8.27-0.567-12.402-0.83v10.335c0.046,0.007,0.092,0.011,0.138,0.02
		c0.784,0.081,1.409,0.118,1.96,0.118c3.092,0,3.188-0.778,3.262-5.483l0.002-3.688l1.303,0.098
		c6.646,0.521,13.29,1.085,19.913,1.675l1.1,0.1L275.676,106.888z M223.634,96.747c16.493,1.841,33.174,4.276,49.632,7.248
		l-0.007-22.465c-5.818-0.518-11.651-1.014-17.49-1.476l-0.006,1.114c-0.062,4.394-0.108,7.863-5.671,7.863
		c-0.628,0-1.337-0.038-2.14-0.126c-0.477-0.053-0.871-0.099-1.269-0.129l-1.105-0.095V73.573l1.283,0.082
		c4.136,0.261,8.274,0.537,12.411,0.822c-0.006-3.461-0.006-6.92,0-10.387l-13.694-0.339v-13.65l2.819-0.031
		c6.257,0,7.363,2.363,7.371,7.329v0.661c0,0.041,0,0.08,0,0.121c5.839,0.078,11.663,0.157,17.49,0.227
		c0-6.996,0-14.006,0.007-21.021c-15.269,1.156-31.521,2.04-49.601,2.696v8.627c2.387,1.605,2.37,4.001,2.35,5.955l-0.02,27.15
		l0.002,0.55c0.015,1.946,0.032,4.333-2.359,5.775L223.634,96.747z"/>
	<polygon fill="#FFFFFF" points="152.064,70.51 281.804,65.934 281.685,73.908 	"/>
	<polygon fill="#FFFFFF" points="133.898,70.298 3.834,74.874 3.768,66.78 	"/>
	<path fill="#FFFFFF" d="M143.753,102.064c0.286,0,0.558-0.021,0.841-0.028l-1.206-13.782l-1.198,13.753
		C142.704,102.043,143.227,102.064,143.753,102.064z"/>
	<path fill="#FFFFFF" d="M143.543,38.909c-0.283,0-0.559,0.021-0.839,0.029l1.208,13.783l1.198-13.757
		C144.594,38.93,144.073,38.909,143.543,38.909z"/>
</g>
</svg>
