<?xml version="1.0" encoding="utf-8"?>
<!-- Generator: Adobe Illustrator 16.0.0, SVG Export Plug-In . SVG Version: 6.00 Build 0)  -->
<!DOCTYPE svg PUBLIC "-//W3C//DTD SVG 1.1//EN" "http://www.w3.org/Graphics/SVG/1.1/DTD/svg11.dtd">
<svg version="1.1" id="Layer_1" xmlns="http://www.w3.org/2000/svg" xmlns:xlink="http://www.w3.org/1999/xlink" x="0px" y="0px"
	 width="63.303px" height="63.167px" viewBox="0 0 63.303 63.167" enable-background="new 0 0 63.303 63.167" xml:space="preserve">
<path fill-rule="evenodd" clip-rule="evenodd" fill="#337AB7" d="M31.74,63.125c-5.702,0-11.405,0.004-17.106-0.001
	C7.733,63.118,2.12,58.705,0.657,51.98c-0.354-1.628-0.336-3.357-0.341-5.04C0.288,36.372,0.338,25.802,0.286,15.233
	C0.257,9.469,2.501,5.009,7.49,2.04c2.376-1.415,5.002-1.85,7.748-1.843C25.87,0.223,36.501,0.222,47.133,0.198
	c2.647-0.006,5.27,0.063,7.708,1.241c5.363,2.59,8.289,6.882,8.342,12.832c0.105,11.613,0.044,23.226,0.025,34.839
	c-0.011,6.932-5.133,12.848-11.992,13.852c-1.17,0.171-2.373,0.153-3.561,0.156C42.35,63.134,37.045,63.125,31.74,63.125z
	 M25.584,35.96c0.416-0.057,0.763-0.11,1.112-0.151c2.692-0.318,5.384-0.635,8.076-0.95c2.651-0.311,5.302-0.622,7.953-0.928
	c2.237-0.259,4.476-0.503,6.711-0.774c0.87-0.105,1.379-0.696,1.38-1.57c0.005-3.865,0.021-7.729-0.024-11.593
	c-0.005-0.415-0.282-0.946-0.607-1.205c-0.313-0.249-0.852-0.292-1.292-0.292c-8.794-0.015-17.588-0.016-26.382,0
	c-0.516,0.001-0.768-0.112-0.793-0.663c-0.016-0.347-0.135-0.693-0.233-1.032c-0.263-0.906-0.734-1.273-1.68-1.279
	c-1.817-0.01-3.635-0.017-5.451,0.01c-0.338,0.005-0.711,0.108-1.001,0.279c-0.55,0.323-0.774,1.003-0.609,1.581
	c0.175,0.613,0.784,1.077,1.519,1.088c1.337,0.021,2.674,0.031,4.01-0.005c0.455-0.012,0.609,0.15,0.697,0.563
	c1.112,5.213,2.201,10.43,3.378,15.627c0.373,1.644,0.525,3.104-0.441,4.674c-0.975,1.582-0.271,2.556,1.601,2.617
	c0.026,0,0.05,0.039,0.077,0.062c-1.631,0.793-2.344,2.014-2.021,3.452c0.302,1.348,1.438,2.296,2.806,2.345
	c1.284,0.045,2.549-0.908,2.882-2.172c0.402-1.527-0.246-2.723-2.023-3.663c6.333,0,12.613,0,18.972,0
	c-1.666,0.803-2.402,2.017-2.132,3.42c0.25,1.303,1.318,2.253,2.698,2.4c1.182,0.126,2.469-0.682,2.918-1.845
	c0.308-0.799,0.279-1.592-0.091-2.367c-0.369-0.773-1.033-1.229-1.959-1.646c0.432,0,0.663,0.018,0.89-0.003
	c0.696-0.067,1.244-0.585,1.36-1.269c0.102-0.594-0.261-1.305-0.864-1.515c-0.362-0.126-0.776-0.143-1.167-0.144
	c-6.559-0.007-13.118-0.005-19.677-0.005c-0.243,0-0.487,0-0.912,0C26.056,37.991,25.916,36.997,25.584,35.96z"/>
<path fill-rule="evenodd" clip-rule="evenodd" fill="#FFFFFF" d="M25.592,35.959c0.332,1.037,0.471,2.03-0.321,3.044
	c0.425,0,0.668,0,0.912,0c6.559,0,13.118-0.002,19.677,0.005c0.391,0.001,0.805,0.018,1.167,0.144
	c0.604,0.21,0.966,0.921,0.864,1.515c-0.116,0.684-0.664,1.202-1.36,1.269c-0.227,0.021-0.458,0.003-0.89,0.003
	c0.927,0.417,1.591,0.873,1.959,1.646c0.37,0.775,0.399,1.568,0.091,2.367c-0.449,1.164-1.736,1.972-2.918,1.845
	c-1.38-0.147-2.447-1.097-2.698-2.4c-0.271-1.404,0.466-2.617,2.132-3.42c-6.359,0-12.639,0-18.972,0
	c1.777,0.94,2.425,2.136,2.023,3.663c-0.333,1.264-1.598,2.217-2.882,2.172c-1.369-0.049-2.504-0.997-2.806-2.345
	c-0.322-1.438,0.391-2.659,2.021-3.452c-0.027-0.022-0.051-0.061-0.077-0.062c-1.872-0.061-2.575-1.035-1.601-2.617
	c0.966-1.57,0.813-3.03,0.441-4.674c-1.177-5.197-2.266-10.415-3.378-15.627c-0.088-0.413-0.242-0.576-0.697-0.563
	c-1.336,0.036-2.673,0.026-4.01,0.005c-0.735-0.011-1.344-0.476-1.519-1.088c-0.165-0.578,0.059-1.258,0.609-1.581
	c0.291-0.171,0.664-0.274,1.001-0.279c1.816-0.026,3.634-0.02,5.451-0.01c0.946,0.005,1.417,0.373,1.68,1.279
	c0.098,0.339,0.217,0.685,0.233,1.032c0.025,0.551,0.277,0.664,0.793,0.663c8.794-0.016,17.588-0.015,26.382,0
	c0.439,0,0.979,0.043,1.292,0.292c0.325,0.259,0.603,0.79,0.607,1.205c0.045,3.864,0.03,7.729,0.024,11.593
	c-0.001,0.874-0.51,1.465-1.38,1.57c-2.236,0.271-4.475,0.515-6.711,0.774c-2.651,0.307-5.302,0.617-7.953,0.928
	c-2.692,0.315-5.384,0.632-8.076,0.95C26.355,35.85,26.008,35.903,25.592,35.959z"/>
</svg>
