<?xml version="1.0" encoding="utf-8"?>
<!-- Generator: Adobe Illustrator 16.0.0, SVG Export Plug-In . SVG Version: 6.00 Build 0)  -->
<!DOCTYPE svg PUBLIC "-//W3C//DTD SVG 1.1//EN" "http://www.w3.org/Graphics/SVG/1.1/DTD/svg11.dtd">
<svg version="1.1" id="Layer_1" xmlns="http://www.w3.org/2000/svg" xmlns:xlink="http://www.w3.org/1999/xlink" x="0px" y="0px"
	 width="649.002px" height="301.667px" viewBox="0 0 649.002 301.667" enable-background="new 0 0 649.002 301.667"
	 xml:space="preserve">
<g>
	<g>
		<polygon fill="#3170A0" points="588.383,237.008 550.67,206.037 550.67,298.094 588.383,267.123 606.717,252.065 		"/>
	</g>
	<g>
		<polygon fill="#3170A0" points="647.01,252.065 590.96,206.037 590.96,237.008 609.293,252.065 590.96,267.123 590.96,298.094 		
			"/>
	</g>
</g>
<g>
	<g>
		<polygon fill="#3170A0" points="61.018,267.123 98.731,298.094 98.731,206.037 61.018,237.008 42.684,252.066 		"/>
	</g>
	<g>
		<polygon fill="#3170A0" points="2.391,252.066 58.44,298.094 58.44,267.123 40.107,252.066 58.44,237.008 58.44,206.037 		"/>
	</g>
</g>
<g>
	<path fill="#FFFFFF" stroke="#FFFFFF" stroke-width="1.2911" stroke-miterlimit="10" d="M125.375,3.994v9.988H13.014v73.659
		h104.868v9.988H13.014v73.657h112.361v9.988H3.023V3.994H125.375z"/>
	<path fill="#FFFFFF" stroke="#FFFFFF" stroke-width="1.2911" stroke-miterlimit="10" d="M154.322,3.994h63.674
		c48.94,0,88.639,39.702,88.639,88.641c0,48.938-39.698,88.64-88.639,88.64h-63.674V3.994z M164.312,171.287h53.684
		c43.445,0,78.652-35.205,78.652-78.651c0-43.447-35.207-78.653-78.652-78.653h-53.684V171.287z"/>
	<path fill="#FFFFFF" stroke="#FFFFFF" stroke-width="1.2911" stroke-miterlimit="10" d="M490.891,89.888v91.387h-9.988v-15.48
		c-15.727,12.232-35.453,19.477-56.931,19.477c-51.185,0-92.632-41.451-92.632-92.636C331.34,41.449,372.787,0,423.972,0
		c23.974,0,45.696,8.989,62.174,23.97l-6.743,7.24c-14.729-13.234-33.953-21.224-55.431-21.224
		c-45.692,0-82.647,36.955-82.647,82.649c0,45.693,36.955,82.648,82.647,82.648c21.974,0,41.95-8.488,56.931-22.473V99.876h-76.654
		v-9.988H490.891z"/>
	<path fill="#FFFFFF" stroke="#FFFFFF" stroke-width="1.2911" stroke-miterlimit="10" d="M644.432,3.994v9.988H532.074v73.659
		h104.868v9.988H532.074v73.657h112.357v9.988H522.084V3.994H644.432z"/>
</g>
<g>
	<path fill="#FFFFFF" d="M140.701,209.976c14.938,0,27.031,12.094,27.031,27.033c0,13.278-9.484,24.185-22.053,26.439l20.867,30.705
		h-5.691l-20.511-30.23h-31.892v30.23h-4.744v-84.177H140.701z M162.99,237.009c0-12.328-9.959-22.289-22.289-22.289h-32.248v44.46
		h32.248C153.031,259.181,162.99,249.34,162.99,237.009z"/>
	<path fill="#FFFFFF" d="M236.725,209.976v4.745h-53.35v34.975h49.791v4.743h-49.791v34.973h53.35v4.742h-58.094v-84.177H236.725z"
		/>
	<path fill="#FFFFFF" d="M257.586,263.923v30.23h-4.74v-84.177h36.99c14.938,0,27.029,12.094,27.029,27.033
		c0,14.937-12.092,26.914-27.029,26.914H257.586z M312.125,237.009c0-12.328-9.959-22.289-22.289-22.289h-32.25v44.46h32.25
		C302.166,259.181,312.125,249.34,312.125,237.009z"/>
	<path fill="#FFFFFF" d="M332.983,209.976h4.743v79.436h54.535v4.742h-59.278V209.976z"/>
	<path fill="#FFFFFF" d="M479.629,294.153h-5.215l-11.266-25.844h-46.354l-11.146,25.844h-5.215l36.518-84.177h6.162
		L479.629,294.153z M418.928,263.565h42.208l-21.104-48.606L418.928,263.565z"/>
	<path fill="#FFFFFF" d="M501.795,257.756l-36.042-47.78h5.926l32.489,43.157l32.48-43.157h5.932l-36.042,47.78v36.397h-4.743
		V257.756z"/>
</g>
</svg>
