<?xml version="1.0" encoding="utf-8"?>
<!-- Generator: Adobe Illustrator 16.0.0, SVG Export Plug-In . SVG Version: 6.00 Build 0)  -->
<!DOCTYPE svg PUBLIC "-//W3C//DTD SVG 1.1//EN" "http://www.w3.org/Graphics/SVG/1.1/DTD/svg11.dtd">
<svg version="1.1" id="Layer_1" xmlns="http://www.w3.org/2000/svg" xmlns:xlink="http://www.w3.org/1999/xlink" x="0px" y="0px"
	 width="647.458px" height="305.084px" viewBox="0 0 647.458 305.084" enable-background="new 0 0 647.458 305.084"
	 xml:space="preserve">
<g>
	<g>
		<polygon fill="#3170A0" points="583.716,239.449 546.003,208.478 546.003,300.535 583.716,269.564 602.05,254.505 		"/>
	</g>
	<g>
		<polygon fill="#3170A0" points="647.348,254.505 591.298,208.478 591.298,239.449 609.631,254.505 591.298,269.564 
			591.298,300.535 		"/>
	</g>
</g>
<g>
	<g>
		<polygon fill="#3170A0" points="66.361,269.564 104.075,300.535 104.075,208.478 66.361,239.449 48.027,254.507 		"/>
	</g>
	<g>
		<polygon fill="#3170A0" points="2.729,254.507 58.779,300.535 58.779,269.564 40.446,254.507 58.779,239.449 58.779,208.478 		"/>
	</g>
</g>
<path fill="#231F20" stroke="#231F20" stroke-width="1.2911" stroke-miterlimit="10" d="M125.713,6.435v9.988H13.352v73.659H118.22
	v9.988H13.352v73.658h112.361v9.988H3.362V6.435H125.713z"/>
<path fill="#231F20" stroke="#231F20" stroke-width="1.2911" stroke-miterlimit="10" d="M154.661,6.435h63.674
	c48.94,0,88.639,39.702,88.639,88.641c0,48.938-39.698,88.64-88.639,88.64h-63.674V6.435z M164.651,173.728h53.684
	c43.445,0,78.652-35.206,78.652-78.652c0-43.447-35.207-78.653-78.652-78.653h-53.684V173.728z"/>
<path fill="#231F20" stroke="#231F20" stroke-width="1.2911" stroke-miterlimit="10" d="M491.229,92.329v91.388h-9.988v-15.48
	c-15.727,12.232-35.453,19.477-56.931,19.477c-51.185,0-92.632-41.451-92.632-92.636c0-51.187,41.447-92.635,92.632-92.635
	c23.974,0,45.696,8.989,62.174,23.97l-6.743,7.24c-14.729-13.234-33.953-21.224-55.431-21.224
	c-45.692,0-82.647,36.955-82.647,82.649c0,45.693,36.955,82.648,82.647,82.648c21.974,0,41.95-8.488,56.931-22.473v-52.935h-76.654
	v-9.988H491.229z"/>
<path fill="#231F20" stroke="#231F20" stroke-width="1.2911" stroke-miterlimit="10" d="M644.77,6.435v9.988H532.413v73.659h104.868
	v9.988H532.413v73.658H644.77v9.988H522.422V6.435H644.77z"/>
<path fill="#231F20" d="M147.523,215.641c14.585,0,26.393,11.199,26.393,25.033c0,12.296-9.261,22.396-21.532,24.484l20.375,28.433
	h-5.557l-20.026-27.994h-31.139v27.994h-4.632v-77.95H147.523z M169.286,240.674c0-11.416-9.724-20.64-21.763-20.64h-31.487v41.171
	h31.487C159.562,261.206,169.286,252.092,169.286,240.674z"/>
<path fill="#231F20" d="M243.282,215.641v4.394h-52.09v32.387h48.616v4.394h-48.616v32.386h52.09v4.391h-56.723v-77.95H243.282z"/>
<path fill="#231F20" d="M264.651,265.597v27.994h-4.628v-77.95h36.117c14.585,0,26.392,11.199,26.392,25.033
	c0,13.832-11.807,24.923-26.392,24.923H264.651z M317.903,240.674c0-11.416-9.724-20.64-21.763-20.64h-31.489v41.171h31.489
	C308.179,261.206,317.903,252.092,317.903,240.674z"/>
<path fill="#231F20" d="M335.266,215.641h4.632v73.56h53.247v4.391h-57.879V215.641z"/>
<path fill="#231F20" d="M478.451,293.591h-5.092l-11-23.933h-45.26l-10.883,23.933h-5.092l35.655-77.95h6.017L478.451,293.591z
	 M419.182,265.265h41.212l-20.605-45.01L419.182,265.265z"/>
<path fill="#231F20" d="M500.093,259.886l-35.191-44.245h5.786l31.722,39.964l31.714-39.964h5.792l-35.191,44.245v33.705h-4.631
	V259.886z"/>
</svg>
