<?xml version="1.0" encoding="utf-8"?>
<!-- Generator: Adobe Illustrator 16.0.0, SVG Export Plug-In . SVG Version: 6.00 Build 0)  -->
<!DOCTYPE svg PUBLIC "-//W3C//DTD SVG 1.1//EN" "http://www.w3.org/Graphics/SVG/1.1/DTD/svg11.dtd">
<svg version="1.1" id="Layer_1" xmlns="http://www.w3.org/2000/svg" xmlns:xlink="http://www.w3.org/1999/xlink" x="0px" y="0px"
	 width="730px" height="199px" viewBox="0 0 730 199" enable-background="new 0 0 730 199" xml:space="preserve">
<path fill="#FFFFFF" d="M91.097,168.761C45.539,168.761,6.5,131.827,6.5,86.27S45.539,3.78,91.097,3.78
	c45.559,0,84.177,36.933,84.177,82.49S136.656,168.761,91.097,168.761z M91.087,164.546c43.232,0,79.878-35.046,79.878-78.276
	c0-43.229-36.646-78.275-79.878-78.275S10.81,43.041,10.81,86.27C10.81,129.5,47.854,164.546,91.087,164.546z"/>
<path fill="#FFFFFF" d="M120.603,87.756l6.637-4.583l2.126-23.57c4.915,6.439,6.244,6.636,9.582,8.963
	c0.91-2.184,2.359-3.633,3.721-4.663l-11.054-11.108l16.173,7.076c0,0,0.811-2.274,1.018-5.62
	c-4.771-3.855-14.54-7.438-17.008-8.055c5.162-7.622,12.058-9.434,18.923-10.288l-4.419-4.991c-2.047-0.169-4.849,0.309-8.572,1.723
	c-11.604,4.408-14.347,13.333-14.405,14.584C123.272,48.349,120.603,87.756,120.603,87.756z"/>
<path fill="#FFFFFF" d="M120.072,88.054l2.792-41.464c0.741-16.429-19.418-27.15-19.473-27.179l-4.323,5.607
	c8.631,4.205,17.75,16.609,17.75,16.609l-22.388-0.955l0.25,6.393c0,0,14.372,0.52,21.256,1.564L96.354,60.086l3.381,5.493
	c0,0,12.288-6.837,16.271-8.922c1.159,9.308-0.841,22.429-2.665,35.896L120.072,88.054z"/>
<path fill="#FFFFFF" d="M125.812,35.352c4.485,0,6.945-3.181,6.945-8.233c0-4.547-3.109-8.233-6.945-8.233
	c-3.835,0-6.944,3.686-6.944,8.233S121.978,35.352,125.812,35.352z"/>
<circle fill="#FFFFFF" cx="90.396" cy="86.361" r="10.177"/>
<path fill="#FFFFFF" d="M62.626,88.054l6.731,4.499c-0.294-2.173-0.593-4.337-0.882-6.477c-0.277-2.047-0.545-4.074-0.792-6.065
	c-0.442-3.56-0.818-7.01-1.057-10.278c-0.354-4.837-0.407-9.274,0.066-13.076c3.984,2.084,16.271,8.922,16.271,8.922l3.381-5.493
	L66.762,48.629c6.884-1.045,21.256-1.564,21.256-1.564l0.25-6.393l-22.388,0.955c0,0,9.12-12.404,17.75-16.609l-4.322-5.607
	c0,0-20.215,10.728-19.474,27.18L62.626,88.054z"/>
<path fill="#FFFFFF" d="M56.886,34.931c3.835,0,6.944-3.686,6.944-8.233s-3.109-8.233-6.944-8.233s-6.944,3.686-6.944,8.233
	C49.941,31.75,52.4,34.931,56.886,34.931z"/>
<path fill="#FFFFFF" d="M21.55,62.752c0,0-0.165-3.673-1.008-6.062c-0.404-1.146-1.038-1.12-1.528-0.023
	c-1.65,3.689-3.719,9.484-2.431,18.586c0.197,1.396-1.631,2.055-1.64,3.489c-0.004,0.765-0.011,1.512-0.002,2.26
	c0.01,0.76,0.036,1.521,0.099,2.308c0.173,2.176,0.624,4.49,1.764,7.1c0.74,1.693-0.044,4.833,0.614,6.422
	c0.508,1.225,0.737,2.638,1.149,3.734c0.312,0.832,0.729,1.481,1.453,1.728c-0.199-6.026,0.532-9.175,2.758-11.856l-1.124,0.105
	c1.451-3.044,2.022-7.068,1.431-10.661C22.61,77,21.907,73.659,21.55,72.014c-0.201-0.927-0.185-1.067,0.492-1.836l4.953-5.628
	l-0.953-6.176L21.55,62.752z"/>
<path fill="#FFFFFF" d="M39.05,124.134c-1.584-2.426-3.463-4.87-5.263-7.615c-2.703-4.124-5.227-8.929-6.301-15.376l14.948,8.037
	l2.68-5.41l-16.397-8.955c4.381-5.589,8.877-6.637,13.187-6.811c2.438-0.098,4.818,0.083,7.083-0.119l0.045-6.249
	c-1.039,0.006-2.139,0.001-3.28,0.014c-1.336,0.015-2.729,0.053-4.149,0.16c-3.355,0.253-6.864,0.893-10.144,2.519
	c-10.629,5.269-12.655,17.7-5.631,29.764c2.197,3.773,3.987,6.188,9.696,13.571L39.05,124.134z"/>
<path fill="#FFFFFF" d="M63.127,89.132c-1.887-1.286-3.08-2.096-3.08-2.096l-4.467,5.922l23.496,16.188H50.883v7.623h26.516
	l-22.416,14.49l3.885,6.588l24.291-15.531v41.44h7.11v-49.175c0.042-4.5-1.178-7.449-3.95-9.46
	C82.487,102.342,69.205,93.273,63.127,89.132z"/>
<path fill="#FFFFFF" d="M74.379,162.186c-4.226,0-7.652-3.426-7.652-7.651c0-4.227,3.426-7.653,7.652-7.653
	c4.226,0,7.651,3.427,7.651,7.653C82.03,158.76,78.604,162.186,74.379,162.186z M74.379,160.81c3.465,0,6.275-2.811,6.275-6.275
	c0-3.466-2.81-6.276-6.275-6.276c-3.466,0-6.275,2.811-6.275,6.276C68.104,157.999,70.913,160.81,74.379,160.81z"/>
<path fill="#FFFFFF" d="M72.798,155.184v3.783h-1.321v-8.728h3.323c2.062,0,3.083,0.762,3.083,2.482
	c0,1.561-0.981,2.242-2.262,2.401l2.481,3.844h-1.481l-2.301-3.783H72.798z M72.798,154.063h1.581c1.121,0,2.122-0.081,2.122-1.422
	c0-1.081-0.98-1.281-1.901-1.281h-1.802V154.063z"/>
<path fill="#FFFFFF" d="M161.219,62.752l-4.492-4.378l-0.953,6.176l4.953,5.628c0.677,0.769,0.693,0.909,0.492,1.836
	c-0.356,1.645-1.06,4.986-1.535,7.868c-0.592,3.593-0.02,7.617,1.431,10.661l-1.124-0.105c2.226,2.682,2.957,5.831,2.758,11.856
	c0.723-0.246,1.14-0.896,1.452-1.728c0.412-1.097,0.641-2.51,1.148-3.734c0.659-1.59-0.125-4.729,0.614-6.422
	c1.141-2.609,1.591-4.923,1.765-7.1c0.125-1.574,0.105-3.077,0.096-4.568c-0.009-1.435-1.837-2.093-1.639-3.489
	c1.288-9.102-0.781-14.897-2.431-18.586c-0.491-1.097-1.124-1.123-1.528,0.023C161.384,59.079,161.219,62.752,161.219,62.752z"/>
<ellipse transform="matrix(0.7071 0.7071 -0.7071 0.7071 61.1183 -2.3227)" fill="#FFFFFF" cx="33.363" cy="72.617" rx="8.042" ry="9.558"/>
<ellipse transform="matrix(0.7071 -0.7071 0.7071 0.7071 -7.6137 126.8527)" fill="#FFFFFF" cx="149.323" cy="72.617" rx="8.042" ry="9.558"/>
<path fill="#FFFFFF" d="M62.106,87.756c0,0-2.669-39.408-2.722-40.532c-0.059-1.252-2.801-10.176-14.405-14.584
	c-3.723-1.415-6.525-1.892-8.572-1.723l-4.419,4.991c6.865,0.854,13.761,2.666,18.923,10.288
	c-2.469,0.616-12.237,4.199-17.008,8.055c0.207,3.346,1.018,5.62,1.018,5.62l16.173-7.076L40.04,63.903
	c1.361,1.03,2.811,2.479,3.721,4.663c1.116-0.778,2.007-1.318,2.884-1.933c1.744-1.224,3.427-2.744,6.698-7.03l2.127,23.57
	L62.106,87.756z"/>
<path fill="#FFFFFF" d="M117.619,133.872l4.096-6.505L105.3,116.77h26.516v-7.623h-28.193l23.496-16.188l-4.467-5.922
	c0,0-1.193,0.811-3.08,2.096c-6.078,4.141-19.359,13.209-23.192,15.99c-2.772,2.011-3.991,4.96-3.95,9.46v49.175h7.11v-41.44
	L117.619,133.872z"/>
<path fill="#FFFFFF" d="M147.121,119.144l4.006,3.374c2.787-3.686,4.16-5.701,5.746-8.424c7.024-12.063,4.999-24.495-5.631-29.764
	c-3.28-1.626-6.79-2.266-10.144-2.519c-2.634-0.199-5.172-0.16-7.429-0.174l0.044,6.249c2.265,0.202,4.644,0.021,7.083,0.119
	c4.31,0.174,8.805,1.222,13.187,6.811l-16.398,8.955l2.68,5.41l14.948-8.037c-1.074,6.447-3.598,11.251-6.301,15.376
	C148.319,117.423,147.717,118.294,147.121,119.144z"/>
<path fill="#FFFFFF" d="M294.784,21.698h-57.111c-10.693,0-17.274,7.782-19.625,16.822l-4.465,17.509
	c-2.938,11.329,0.47,15.334,11.281,15.334h24.56c3.643,0,4.7,0.687,3.995,3.205l-1.292,5.035c-0.587,2.403-1.645,3.204-5.288,3.204
	H206.65l-3.056,12.13h55.466c11.634,0,18.45-5.95,21.387-17.279l4.936-19.226c2.468-9.956-3.76-14.076-14.689-14.076h-21.387
	c-3.878,0-4.818-0.687-4.348-2.861l1.292-4.692c0.587-2.289,1.88-2.975,5.758-2.975h39.602L294.784,21.698z"/>
<path fill="#FFFFFF" d="M367.446,57.651l-5.652,21.421c-2.525,9.457-9.74,15.952-21.524,15.952h-22.847
	c-4.088,0-5.652-1.937-6.133-5.241l-6.613,25.523h-28.378l19.36-73.835h26.815l-1.443,5.697c2.285-2.849,4.449-5.697,8.778-5.697
	h24.53C366.604,41.472,369.851,48.422,367.446,57.651z M339.549,55.829c0.601-2.621-0.121-3.874-3.127-3.874h-11.303
	c-2.646,0-4.209,1.253-4.81,3.874l-6.613,24.839c-0.602,2.621,0.24,3.874,2.886,3.874h11.303c3.006,0,4.449-1.253,5.05-3.874
	L339.549,55.829z"/>
<path fill="#FFFFFF" d="M445.978,56.486l-4.462,17.394h-46.374l-1.292,5.035c-0.939,3.548,0.588,5.493,4.344,5.493h39.447
	l-2.7,10.528h-57.526c-9.262,0-13.471-7.354-11.271-16.021l5.752-22.429c2.465-9.956,7.749-15.334,19.255-15.334h43.32
	C442.61,41.152,447.881,48.796,445.978,56.486z M419.092,55.914c0.822-3.09,0-4.234-3.17-4.234h-10.919
	c-3.169,0-4.461,1.144-5.283,4.234l-1.878,7.438h19.371L419.092,55.914z"/>
<path fill="#FFFFFF" d="M515.532,41.152h-45.445c-11.361,0-18.317,6.523-20.752,16.021l-5.449,21.743
	c-2.216,8.646,3.071,16.021,12.637,16.021h45.446l2.667-10.528h-29.101c-3.709,0-5.217-1.945-4.289-5.493l5.449-21.743
	c0.928-3.547,3.361-5.493,7.072-5.493h29.099L515.532,41.152z"/>
<polygon fill="#FFFFFF" points="554.068,21.698 525.796,21.698 522.082,35.888 550.354,35.888 "/>
<polygon fill="#FFFFFF" points="548.917,41.152 520.645,41.152 506.628,94.937 534.9,94.937 "/>
<path fill="#FFFFFF" d="M623.007,60.377l-9.117,34.56h-27.353l1.338-5.95c-2.311,4.692-5.835,5.95-12.4,5.95h-21.639
	c-7.611,0-14.433-6.763-12.035-15.792l1.338-4.921c2.918-11.1,8.509-15.677,19.937-15.677h31.729l0.972-3.433
	c0.486-2.06-0.607-3.433-3.525-3.433H551.77l2.796-10.528h54.705C621.062,41.152,626.897,45.615,623.007,60.377z M592.008,69.074
	h-12.643c-5.105,0-6.564,1.373-7.294,4.463l-1.823,6.523c-0.729,3.09,0.121,4.349,4.74,4.349h7.781c4.619,0,5.591-1.602,6.929-6.523
	L592.008,69.074z"/>
<polygon fill="#FFFFFF" points="666.047,21.698 637.466,21.698 618.089,94.937 646.67,94.937 "/>
<path fill="#FFFFFF" d="M238.843,120.146l-8.809,32.729c-3.474,12.701-11.539,20.255-25.062,20.255h-46.403
	c-13.524,0-17.618-7.554-14.145-20.255l8.81-32.729c3.474-12.702,11.663-20.255,25.187-20.255h46.403
	C238.347,99.892,242.317,107.444,238.843,120.146z M209.562,116.599c0.868-3.089-0.373-4.576-4.715-4.576h-13.152
	c-4.343,0-6.328,1.487-7.196,4.576l-10.794,39.824c-0.744,3.09,0.372,4.578,4.715,4.578h13.152c4.342,0,6.452-1.488,7.196-4.578
	L209.562,116.599z"/>
<path fill="#FFFFFF" d="M350.453,119.346h-28.274l-10.303,39.365c-0.599,2.633-2.516,3.892-4.792,3.892h-10.543
	c-2.995,0-3.714-1.488-3.115-3.892l10.304-39.365h-28.274l-9.105,34.789c-2.875,11.329,0.719,18.996,13.658,18.996h19.888
	c4.792,0,7.548-1.832,9.345-5.264l-2.636,11.1c-0.719,3.09-2.636,4.006-6.23,4.006H260.12l-2.756,10.527h57.866
	c10.663,0,17.252-5.149,20.008-15.678L350.453,119.346z"/>
<path fill="#FFFFFF" d="M473.119,140.402c3.854-13.275,1.994-21.057-12.361-21.057h-22.063c-4.651,0-7.044,2.747-8.771,5.836
	c-0.532-3.089-0.931-5.836-8.508-5.836h-29.107c-4.652,0-6.911,2.174-9.836,6.523l1.595-6.523h-27.114c0,0-2.126,7.21-3.456,12.13
	l-12.095,41.655h28.709l11.563-39.709c0.665-2.633,2.658-3.548,5.184-3.548h9.305c3.323,0,4.253,1.145,3.588,3.548l-11.562,39.709
	h28.709l11.563-39.709c0.665-2.633,2.659-3.548,5.184-3.548h9.305c3.323,0,4.253,1.145,3.588,3.548l-11.563,39.709h28.71
	L473.119,140.402z"/>
<path fill="#FFFFFF" d="M726.5,119.346h-51.187c-9.19,0-18.032,5.149-20.126,13.39l-2.561,10.299
	c-2.094,8.125,0.466,13.389,10.587,13.389h24.896c2.443,0,3.141,0.916,2.792,2.518l-0.466,1.717
	c-0.348,1.603-1.512,2.632-4.071,2.632h-38.972l-2.443,9.842h52.234c9.889,0,17.218-6.065,19.312-14.19l2.56-10.07
	c2.443-9.613-1.745-13.503-11.168-13.503h-24.197c-2.327,0-3.491-0.458-3.025-2.061l0.465-1.945c0.35-1.373,1.396-2.175,4.188-2.175
	h38.739L726.5,119.346z"/>
<path fill="#FFFFFF" d="M654.969,119.34h-45.446c-11.361,0-18.317,6.523-20.751,16.021l-5.449,21.743
	c-2.216,8.646,3.07,16.021,12.637,16.021h45.445l2.667-10.527h-29.1c-3.71,0-5.217-1.945-4.289-5.493l5.448-21.743
	c0.928-3.547,3.362-5.492,7.072-5.492h29.099L654.969,119.34z"/>
<polygon fill="#FFFFFF" points="595.459,99.889 567.188,99.889 563.473,114.078 591.746,114.078 "/>
<polygon fill="#FFFFFF" points="590.309,119.343 562.035,119.343 548.02,173.127 576.291,173.127 "/>
<path fill="#FFFFFF" d="M554.364,135.741l-5.651,21.421c-2.525,9.457-9.74,15.952-21.524,15.952h-22.847
	c-4.089,0-5.652-1.938-6.133-5.241l-6.613,25.523h-28.379l19.36-73.835h26.815l-1.443,5.696c2.285-2.848,4.448-5.696,8.778-5.696
	h24.529C553.522,119.562,556.77,126.512,554.364,135.741z M526.467,133.918c0.602-2.62-0.12-3.874-3.126-3.874h-11.304
	c-2.645,0-4.209,1.254-4.81,3.874l-6.613,24.839c-0.602,2.621,0.24,3.874,2.886,3.874h11.303c3.007,0,4.449-1.253,5.051-3.874
	L526.467,133.918z"/>
<polygon fill="#FFFFFF" points="277.009,99.889 248.429,99.889 229.052,173.127 257.633,173.127 "/>
</svg>
