<?xml version="1.0" encoding="utf-8"?>
<!-- Generator: Adobe Illustrator 16.0.0, SVG Export Plug-In . SVG Version: 6.00 Build 0)  -->
<!DOCTYPE svg PUBLIC "-//W3C//DTD SVG 1.1//EN" "http://www.w3.org/Graphics/SVG/1.1/DTD/svg11.dtd">
<svg version="1.1" id="Layer_1" xmlns="http://www.w3.org/2000/svg" xmlns:xlink="http://www.w3.org/1999/xlink" x="0px" y="0px"
	 width="485.872px" height="185.153px" viewBox="0 0 485.872 185.153" enable-background="new 0 0 485.872 185.153"
	 xml:space="preserve">
<g>
	<path d="M125.529,3.874l-3.513,6.93l-0.605-0.344c0.011-0.142,0.021-0.257,0.021-0.345c0-0.488-0.418-1.013-1.248-1.576
		c-2.56-1.779-5.566-2.67-9.016-2.67c-1.524,0-2.87,0.184-4.03,0.56c-0.851,0.286-1.535,0.717-2.063,1.294
		c-0.525,0.572-0.785,1.196-0.785,1.87c0,1.105,0.668,1.862,2.004,2.264c0.689,0.2,2.168,0.415,4.441,0.643l3.387,0.348
		c2.014,0.214,3.641,0.509,4.886,0.884c1.242,0.371,2.347,0.895,3.31,1.571c0.979,0.703,1.749,1.632,2.315,2.781
		c0.57,1.148,0.854,2.375,0.854,3.685c0,2.066-0.669,3.906-2.004,5.515c-1.209,1.464-3.083,2.552-5.629,3.254
		c-1.897,0.533-3.932,0.797-6.101,0.797c-3.899,0-7.744-0.937-11.541-2.803c-0.806-0.376-1.286-0.562-1.444-0.562
		c-0.188,0-0.48,0.159-0.884,0.474l-0.626-0.323l3.191-7.224l0.625,0.301c0,0.131,0,0.225,0,0.279c0,0.649,0.309,1.245,0.927,1.792
		c0.936,0.833,2.381,1.551,4.335,2.157c1.958,0.606,3.811,0.905,5.565,0.905c1.912,0,3.542-0.323,4.895-0.969
		c0.747-0.358,1.346-0.836,1.79-1.429c0.443-0.594,0.667-1.217,0.667-1.862c0-0.976-0.523-1.673-1.576-2.089
		c-0.731-0.286-2.209-0.553-4.441-0.797l-3.317-0.344c-2.231-0.228-3.804-0.447-4.726-0.655c-0.917-0.211-1.837-0.544-2.759-1.005
		c-1.307-0.648-2.334-1.617-3.086-2.914c-0.674-1.165-1.012-2.5-1.012-4.014c0-2.488,0.854-4.547,2.569-6.171
		c2.241-2.143,5.605-3.218,10.091-3.218c1.885,0,3.637,0.192,5.26,0.577c1.625,0.382,3.653,1.083,6.083,2.108
		c0.833,0.333,1.344,0.5,1.53,0.5c0.302,0,0.655-0.168,1.057-0.5L125.529,3.874z"/>
	<path d="M168.671,18.869v9.705c0,0.431,0.105,0.767,0.315,1.003c0.205,0.237,0.562,0.419,1.065,0.552v0.688h-9.186v-0.688
		c0.519-0.145,0.876-0.332,1.078-0.562c0.204-0.23,0.303-0.562,0.303-0.993V3.645c0-0.446-0.099-0.783-0.303-1.012
		c-0.202-0.231-0.559-0.419-1.078-0.56V1.381h18.374c2.144,0,3.839,0.143,5.1,0.431c1.258,0.288,2.369,0.784,3.33,1.489
		c0.991,0.733,1.767,1.693,2.327,2.888c0.563,1.238,0.842,2.544,0.842,3.925c0,1.987-0.529,3.723-1.595,5.22
		c-0.92,1.28-2.137,2.188-3.654,2.727c-1.517,0.539-3.633,0.808-6.35,0.808H168.671z M168.671,14.017h9.813
		c1.956,0,3.325-0.207,4.118-0.626c0.506-0.271,0.907-0.705,1.218-1.302c0.308-0.598,0.464-1.255,0.464-1.975
		c0-0.704-0.156-1.355-0.464-1.953c-0.311-0.597-0.712-1.029-1.218-1.302c-0.779-0.418-2.148-0.626-4.118-0.626h-9.813V14.017z"/>
	<path d="M241.753,0.862c5.139,0,9.213,1.39,12.22,4.165c3.176,2.903,4.768,6.654,4.768,11.255c0,2.818-0.765,5.45-2.288,7.892
		c-2.978,4.775-7.859,7.161-14.655,7.161c-5.094,0-9.141-1.388-12.147-4.164c-1.611-1.479-2.834-3.254-3.669-5.324
		c-0.733-1.827-1.096-3.745-1.096-5.76c0-2.944,0.752-5.64,2.26-8.087C230.039,3.33,234.913,0.95,241.753,0.862z M241.779,5.868
		c-2.806,0-5.146,0.831-7.015,2.497c-2.219,1.967-3.326,4.545-3.326,7.734s1.107,5.764,3.326,7.734
		c1.869,1.663,4.222,2.498,7.059,2.498s5.182-0.835,7.038-2.498c1.109-0.991,1.954-2.206,2.545-3.641
		c0.519-1.279,0.777-2.6,0.777-3.964c0-3.33-1.109-5.953-3.322-7.862C246.978,6.729,244.612,5.897,241.779,5.868z"/>
	<path d="M302.074,18.803v9.771c0,0.431,0.103,0.767,0.313,1.003c0.207,0.237,0.566,0.419,1.065,0.552v0.688h-9.187v-0.688
		c0.519-0.145,0.88-0.332,1.082-0.562c0.198-0.23,0.301-0.562,0.301-0.993V3.645c0-0.446-0.103-0.783-0.301-1.012
		c-0.202-0.231-0.563-0.419-1.082-0.56V1.381h18.419c2.242,0,4.021,0.128,5.336,0.39c1.314,0.257,2.463,0.709,3.441,1.355
		c1.135,0.747,1.983,1.763,2.542,3.04c0.536,1.24,0.798,2.56,0.798,3.968c0,4.803-2.667,7.615-8.001,8.433l5.714,8.131
		c1.011,1.422,1.747,2.338,2.21,2.749c0.473,0.411,1.042,0.634,1.72,0.68v0.688h-10.637v-0.688c0.729-0.118,1.099-0.375,1.099-0.775
		c0-0.262-0.339-0.888-1.012-1.878l-5.964-8.672H302.074z M302.074,13.954h9.919c1.469,0,2.504-0.044,3.106-0.131
		c0.601-0.083,1.157-0.267,1.659-0.539c1.094-0.589,1.643-1.651,1.643-3.19c0-1.538-0.549-2.6-1.643-3.193
		c-0.514-0.287-1.063-0.473-1.648-0.547c-0.581-0.079-1.621-0.121-3.117-0.121h-9.919V13.954z"/>
	<path d="M376.702,6.233v22.32c0,0.444,0.104,0.783,0.308,1.013c0.195,0.23,0.556,0.417,1.076,0.562v0.688h-9.191v-0.688
		c0.523-0.145,0.881-0.332,1.081-0.562c0.202-0.23,0.303-0.569,0.303-1.013V6.233h-9.144c-0.432,0-0.761,0.099-0.994,0.295
		c-0.229,0.199-0.413,0.559-0.56,1.086h-0.688V0h0.688c0.154,0.523,0.348,0.884,0.572,1.083c0.222,0.199,0.55,0.299,0.981,0.299
		h24.692c0.445,0,0.779-0.1,1.01-0.299c0.235-0.198,0.419-0.56,0.562-1.083h0.691v7.614h-0.691
		c-0.143-0.527-0.326-0.887-0.562-1.086c-0.23-0.196-0.564-0.295-1.01-0.295H376.702z"/>
</g>
<g>
	<g>
		<g>
			<g>
				<g>
					<path d="M52.119,175.364c-9.407,0.762-18.057,0.098-25.712-2.154c-7.732-2.271-14.29-5.926-19.491-10.941
						c-0.424-0.408-0.847-0.816-1.271-1.227c0-9.869,0-19.738,0-29.607c8.621-0.193,17.246-0.375,25.875-0.545
						c0.895,5.684,1.79,11.344,2.685,16.98c1.655,0.932,3.77,1.715,6.308,2.338c3.41,0.838,7.313,1.146,11.605,0.945
						c5.079-0.238,8.854-1.271,11.22-3.057c2.088-1.576,3.06-3.477,3.06-6.006c0-2.697-0.948-4.662-2.982-6.203
						c-1.756-1.33-5.679-3.373-14.389-5.662c-13.726-3.445-24.378-7.998-31.621-13.49c-7.958-6.016-11.99-14.605-11.99-25.179
						c0-10.503,4.49-18.923,13.351-24.674c8.443-5.495,19.098-7.614,31.675-6.739c9.181,0.75,17.639,2.691,25.199,5.692
						c7.603,3.022,14.113,6.768,19.35,11.158c0.502,0.422,1.005,0.842,1.507,1.262c0,8.611,0,17.222,0,25.833
						c-8.414-0.131-16.825-0.273-25.233-0.428c-1.074-5.116-2.147-10.253-3.221-15.414c-1.228-0.541-3.005-1.182-5.555-1.862
						c-3.372-0.901-7.016-1.455-10.832-1.632c-5.092-0.238-8.954,0.492-11.479,2.213c-2.221,1.512-3.255,3.401-3.255,5.923
						c0,1.452,0.375,3.387,3.302,5.384c2.139,1.455,6.803,3.888,16.89,6.996c12.94,3.539,22.99,8.008,29.865,13.367
						c7.39,5.768,11.137,13.229,11.137,22.396c0,9.678-4.469,17.564-13.28,23.768C76.474,170.675,65.463,174.278,52.119,175.364z"/>
					<path d="M50.502,64.392c8.618,0.651,16.468,2.408,23.552,5.194c7.082,2.789,13.039,6.197,17.864,10.244
						c0,6.721,0,13.44,0,20.161c-5.622-0.117-11.244-0.24-16.863-0.369c-0.975-4.627-1.95-9.271-2.925-13.933
						c-1.95-1.189-4.801-2.288-8.546-3.307c-3.746-1.02-7.723-1.648-11.927-1.869c-6.157-0.324-10.912,0.619-14.271,2.898
						c-3.357,2.275-5.036,5.396-5.036,9.305c0,3.618,1.756,6.648,5.268,9.033c3.51,2.387,9.574,4.93,18.194,7.535
						c12.362,3.311,21.743,7.418,28.136,12.395c6.391,4.984,9.588,11.418,9.588,19.473c0,8.416-3.801,15.172-11.399,20.514
						c-7.595,5.332-17.605,8.529-30.019,9.465c-8.875,0.666-16.886,0.002-24.035-2.145c-7.151-2.143-13.106-5.482-17.87-10.076
						c0-7.688,0-15.377,0-23.064c5.788-0.168,11.578-0.33,17.369-0.486c0.795,5.072,1.59,10.127,2.384,15.164
						c2.254,1.652,5.317,2.943,9.19,3.869c3.87,0.93,8.19,1.25,12.962,0.996c6.155-0.326,10.837-1.713,14.044-4.137
						c3.208-2.424,4.812-5.51,4.812-9.305c0-3.887-1.529-6.969-4.581-9.283c-3.054-2.314-8.404-4.473-16.045-6.523
						c-13.284-3.41-23.33-7.73-30.145-12.91c-6.816-5.17-10.22-12.414-10.221-21.48c0-8.964,3.839-16.088,11.526-21.104
						C29.197,65.618,38.857,63.652,50.502,64.392 M50.502,55.904c-0.021-0.002-0.041-0.003-0.061-0.005
						c-0.02-0.001-0.04-0.003-0.061-0.004c-13.565-1.026-25.122,1.214-34.354,7.191C6.093,69.491,0.849,79.421,0.848,91.359
						c0,11.98,4.756,22.132,13.76,28.914c3.05,2.305,6.564,4.412,10.582,6.34c-4.994,0.066-9.986,0.137-14.977,0.211
						c-3.045,0.043-6.091,0.088-9.135,0.135c0,3.053,0,6.105,0,9.158c0,7.803,0,15.607,0,23.41c0,1.227,0,2.453,0,3.68
						c0.846,0.822,1.693,1.641,2.539,2.457c5.661,5.455,12.764,9.391,21.115,11.793c8.188,2.359,17.402,3.01,27.386,2.143
						c14.334-1.254,26.254-5.24,35.417-11.688c9.917-6.99,15.161-16.188,15.161-27c0-10.309-4.269-18.727-12.684-25.301
						c-3.654-2.852-7.986-5.422-13.062-7.752c4.988,0.062,9.978,0.121,14.967,0.178c3.053,0.035,6.106,0.068,9.16,0.102
						c0-2.654,0-5.307,0-7.961c0-6.651,0-13.301,0-19.953c0-1.178,0-2.355,0-3.533c-1.005-0.836-2.01-1.676-3.016-2.518
						c-5.671-4.752-12.682-8.806-20.834-12.075C69.158,58.866,60.165,56.751,50.502,55.904L50.502,55.904z M58.419,101.265
						c-9.992-3.131-14.052-5.4-15.587-6.444c-1.336-0.915-1.336-1.349-1.336-1.767c0-1.032,0.228-1.714,1.475-2.566
						c1.682-1.15,4.686-1.663,8.687-1.5c3.447,0.14,6.722,0.617,9.735,1.407c1.036,0.272,1.906,0.53,2.634,0.768
						c0.678,3.274,1.356,6.54,2.035,9.795c0.197,0.947,0.395,1.895,0.592,2.84C64.057,102.915,61.312,102.071,58.419,101.265
						L58.419,101.265z M38.392,144.933c-0.589-3.689-1.178-7.387-1.766-11.096c-0.15-0.941-0.299-1.883-0.449-2.824
						c3.568,1.197,7.421,2.305,11.577,3.328c8.64,2.229,11.75,4.09,12.685,4.799c0.853,0.646,1.383,1.387,1.383,3.102
						c0,1.432-0.439,2.023-1.305,2.676c-0.869,0.654-3.113,1.785-8.398,2.004c-3.83,0.156-7.276-0.133-10.241-0.879
						C40.453,145.685,39.309,145.304,38.392,144.933L38.392,144.933z"/>
				</g>
				<g>
					<path d="M145.602,169.667c-16.324,0.676-29.903-3.412-40.367-12.805c-10.363-9.275-15.616-22.002-15.616-37.381
						c0-1.109,0-2.217,0-3.324c0-15.322,5.222-28.045,15.524-37.37c10.414-9.45,24.024-13.562,40.459-12.88
						c9.303,0.384,17.853,2.115,25.411,5.118c7.558,3.004,13.919,6.871,18.907,11.53c0.382,0.356,0.764,0.713,1.146,1.069
						c0,7.694,0,15.388,0,23.082c-8.42-0.039-16.838-0.09-25.255-0.15c-0.89-4.723-1.779-9.455-2.669-14.195
						c-1.574-1.104-3.491-2.036-5.719-2.781c-2.827-0.946-6.285-1.475-10.277-1.567c-8.306-0.195-14.478,2.036-18.87,6.942
						c-4.643,5.179-6.997,12.322-6.997,21.128c0,1.113,0,2.227,0,3.34c0,8.816,2.347,15.986,6.975,21.213
						c4.367,4.938,10.42,7.188,18.507,6.996c3.887-0.09,7.462-0.635,10.629-1.611c2.383-0.734,4.307-1.629,5.738-2.672
						c0.894-4.764,1.788-9.521,2.683-14.27c8.417-0.061,16.835-0.111,25.255-0.152c0,7.688,0,15.375,0,23.061
						c-0.372,0.354-0.743,0.707-1.115,1.062c-4.956,4.725-11.325,8.605-18.931,11.572
						C163.439,167.575,154.887,169.282,145.602,169.667z"/>
					<path d="M145.602,69.722c8.688,0.332,16.529,1.897,23.521,4.669c6.991,2.772,12.778,6.285,17.354,10.566
						c0,6.003,0,12.006,0,18.008c-5.579-0.039-11.158-0.084-16.737-0.135c-0.771-4.086-1.542-8.178-2.314-12.277
						c-2.211-1.851-5.001-3.339-8.369-4.472c-3.366-1.132-7.337-1.761-11.913-1.881c-9.767-0.26-17.282,2.467-22.549,8.357
						c-5.268,5.883-7.9,13.762-7.9,23.516c0,1.117,0,2.236,0,3.355c0,9.754,2.62,17.656,7.862,23.584
						c5.242,5.934,12.641,8.686,22.202,8.43c4.42-0.117,8.468-0.748,12.144-1.889c3.678-1.139,6.517-2.629,8.523-4.473
						c0.771-4.1,1.543-8.193,2.314-12.279c5.579-0.051,11.158-0.096,16.737-0.135c0,6.002,0,12.004,0,18.008
						c-4.526,4.322-10.296,7.836-17.315,10.566c-7.021,2.729-14.873,4.275-23.561,4.607c-15.06,0.578-27.391-3.178-36.998-11.803
						c-9.606-8.605-14.406-20.256-14.406-34.576c0-1.102,0-2.203,0-3.307c0-14.273,4.776-25.923,14.33-34.576
						C118.083,72.916,130.439,69.14,145.602,69.722 M145.602,62.091c-17.778-0.791-32.527,3.606-43.844,13.871
						C90.662,85.998,85.04,99.696,85.04,116.147c0,1.115,0,2.229,0,3.342c0,16.518,5.659,30.227,16.826,40.213
						c11.366,10.195,26.079,14.564,43.736,13.779c9.929-0.439,19.106-2.297,27.275-5.486c8.23-3.219,15.144-7.434,20.547-12.576
						c0.742-0.707,1.484-1.414,2.228-2.119c0-0.918,0-1.836,0-2.754c0-5.979,0-11.957,0-17.936c0-2.469,0-4.938,0-7.406
						c-3.058,0.008-6.116,0.018-9.174,0.029c-5.579,0.02-11.158,0.041-16.737,0.066c-2.621,0.012-5.241,0.025-7.862,0.039
						c-0.4,2.131-0.801,4.264-1.201,6.398c-0.597,3.182-1.194,6.369-1.792,9.559c-0.833,0.428-1.844,0.824-3.004,1.18
						c-2.686,0.822-5.752,1.277-9.122,1.346c-6.616,0.137-11.322-1.604-14.812-5.545c-4.039-4.559-6.087-10.928-6.087-18.859
						c0-1.109,0-2.219,0-3.328c0-7.916,2.05-14.25,6.093-18.756c3.516-3.923,8.342-5.65,15.19-5.51
						c3.432,0.069,6.339,0.495,8.643,1.262c1.158,0.386,2.198,0.827,3.111,1.321c0.593,3.168,1.186,6.332,1.779,9.492
						c0.4,2.135,0.801,4.268,1.201,6.398c2.621,0.014,5.241,0.027,7.862,0.039c5.579,0.025,11.158,0.047,16.737,0.066
						c3.058,0.01,6.116,0.02,9.174,0.029c0-2.469,0-4.938,0-7.406c0-5.979,0-11.958,0-17.936c0-0.933,0-1.865,0-2.798
						c-0.764-0.71-1.527-1.421-2.29-2.134c-5.421-5.056-12.305-9.243-20.459-12.492C164.747,64.418,155.561,62.533,145.602,62.091
						L145.602,62.091z"/>
				</g>
				<g>
					<path d="M243.691,167.669c-16.491-0.008-30.027-4.59-40.229-13.924c-10.039-9.176-15.128-21.078-15.128-35.273
						c0-0.457,0-0.916,0-1.375c0-14.104,5.071-25.981,15.077-35.196c10.176-9.385,23.702-13.989,40.202-13.997
						c16.539-0.003,30.148,4.584,40.45,13.955c10.146,9.216,15.29,21.109,15.29,35.238c0,0.459,0,0.918,0,1.377
						c0,14.219-5.133,26.135-15.256,35.307C273.822,163.106,260.227,167.673,243.691,167.669z M243.614,89.308
						c-7.873,0.001-13.542,2.258-17.326,6.937c-4.148,5.12-6.25,12.1-6.25,20.737c0,0.494,0,0.99,0,1.484
						c0,8.713,2.125,15.742,6.318,20.883c3.835,4.705,9.506,6.975,17.335,6.977c7.948,0.002,13.713-2.273,17.622-6.992
						c4.258-5.135,6.416-12.158,6.416-20.867c0-0.494,0-0.99,0-1.484c0-8.541-2.181-15.488-6.483-20.638
						C257.283,91.594,251.515,89.306,243.614,89.308z"/>
					<path d="M243.614,71.572c15.227-0.003,27.559,4.166,36.995,12.757c9.438,8.581,14.158,19.534,14.158,32.77
						c0,0.457,0,0.916,0,1.373c0,13.322-4.703,24.295-14.12,32.836c-9.41,8.547-21.732,12.697-36.956,12.693
						c-15.176-0.008-27.431-4.166-36.766-12.715c-9.336-8.541-14.004-19.506-14.004-32.814c0-0.457,0-0.916,0-1.373
						c0-13.225,4.656-24.168,13.965-32.75C216.196,75.755,228.438,71.579,243.614,71.572 M243.691,149.993
						c9.517,0.002,16.666-2.846,21.448-8.619c4.785-5.768,7.178-13.408,7.178-22.908c0-0.494,0-0.99,0-1.486
						c0-9.33-2.417-16.902-7.254-22.69c-4.834-5.791-11.986-8.652-21.449-8.65c-9.465,0.002-16.525,2.847-21.18,8.598
						c-4.658,5.749-6.984,13.334-6.984,22.745c0,0.494,0,0.99,0,1.484c0,9.494,2.354,17.131,7.062,22.9
						C227.218,147.138,234.277,149.991,243.691,149.993 M243.614,64.235c-17.896,0.01-32.591,4.994-43.677,15.208
						c-10.743,9.887-16.188,22.597-16.188,37.654c0,0.459,0,0.918,0,1.377c0,15.152,5.467,27.893,16.25,37.738
						c11.112,10.158,25.813,15.115,43.692,15.125c17.916,0.004,32.673-4.932,43.858-15.074
						c10.876-9.846,16.391-22.605,16.391-37.789c0-0.459,0-0.918,0-1.379c0-15.092-5.524-27.827-16.423-37.715
						C276.308,69.191,261.536,64.231,243.614,64.235L243.614,64.235z M243.691,142.657c-6.325-0.002-10.487-1.637-13.49-5.322
						c-3.7-4.537-5.576-10.887-5.576-18.871c0-0.494,0-0.988,0-1.482c0-7.91,1.855-14.215,5.514-18.732
						c2.955-3.653,7.11-5.272,13.476-5.273c6.423-0.001,10.684,1.662,13.815,5.415c3.79,4.54,5.713,10.797,5.713,18.59
						c0,0.494,0,0.988,0,1.484c0,7.965-1.902,14.303-5.652,18.826C254.41,141.011,250.154,142.657,243.691,142.657L243.691,142.657z
						"/>
				</g>
				<g>
					<path d="M288.146,166.796c0-5.881,0-11.762,0-17.645c3.985-0.574,7.972-1.146,11.957-1.715c0-19.746,0-39.492,0-59.237
						c-3.985-0.569-7.972-1.141-11.957-1.716c0-5.902,0-11.805,0-17.708c19.351-0.361,38.696-0.953,58.034-1.777
						c13.946-0.598,25.198,1.935,33.448,7.903c8.408,6.063,12.67,14.59,12.67,25.118c0,10.582-4.269,19.283-12.69,25.6
						c-8.243,6.203-19.489,9.1-33.428,8.9c-4.795-0.068-9.589-0.131-14.385-0.188c0,4.557,0,9.115,0,13.674
						c4.01,0.727,8.02,1.463,12.028,2.215c0,6.084,0,12.168,0,18.252C325.271,167.702,306.71,167.144,288.146,166.796z
						 M346.18,112.339c4.995-0.023,8.554-1.051,10.883-3.162c2.404-2.18,3.572-4.949,3.572-8.443c0-3.601-1.184-6.431-3.619-8.63
						c-2.324-2.098-5.869-3.043-10.836-2.923c-4.795,0.114-9.589,0.222-14.385,0.32c0,7.633,0,15.266,0,22.899
						C336.591,112.38,341.386,112.36,346.18,112.339z"/>
					<path d="M346.18,70.834c12.847-0.51,22.983,1.777,30.403,7.156c7.424,5.367,11.135,12.8,11.135,22.124
						c0,9.369-3.711,16.941-11.135,22.518c-7.42,5.588-17.557,8.195-30.403,8.053c-6.322-0.068-12.646-0.131-18.97-0.186
						c0,6.844,0,13.686,0,20.529c4.01,0.729,8.02,1.469,12.029,2.223c0,3.74,0,7.482,0,11.223c-15.498-0.568-31.001-1-46.507-1.295
						c0-3.637,0-7.275,0-10.912c3.985-0.566,7.972-1.129,11.957-1.688c0-21.842,0-43.682,0-65.523
						c-3.985-0.56-7.972-1.122-11.957-1.688c0-3.658,0-7.316,0-10.974c3.985-0.076,7.972-0.161,11.957-0.255
						C318.523,71.814,332.354,71.378,346.18,70.834 M327.21,116.196c6.324-0.008,12.647-0.016,18.97-0.023
						c6.267-0.008,11.011-1.449,14.222-4.363c3.211-2.912,4.816-6.645,4.816-11.15c0-4.594-1.605-8.357-4.816-11.253
						c-3.211-2.898-7.955-4.232-14.222-4.061c-6.322,0.172-12.646,0.328-18.97,0.468C327.21,95.941,327.21,106.069,327.21,116.196
						 M346.18,63.165c-13.826,0.633-27.657,1.139-41.49,1.518c-3.985,0.109-7.972,0.208-11.957,0.296
						c-3.058,0.067-6.115,0.129-9.174,0.184c0,2.463,0,4.926,0,7.389c0,3.645,0,7.29,0,10.936c0,2.032,0,4.063,0,6.096
						c2.477,0.362,4.954,0.723,7.431,1.083c1.509,0.22,3.018,0.438,4.527,0.657c0,17.662,0,35.326,0,52.988
						c-1.51,0.219-3.02,0.438-4.528,0.656c-2.477,0.361-4.953,0.723-7.43,1.084c0,2.031,0,4.062,0,6.096c0,3.623,0,7.248,0,10.873
						c0,2.463,0,4.926,0,7.389c3.059,0.055,6.116,0.115,9.174,0.184c15.506,0.344,31.009,0.846,46.507,1.508
						c3.056,0.131,6.111,0.268,9.167,0.41c0-2.562,0-5.123,0-7.684c0-3.77,0-7.539,0-11.309c0-2.115,0-4.23,0-6.346
						c-2.478-0.463-4.956-0.92-7.435-1.373c-1.53-0.279-3.062-0.557-4.593-0.832c0-2.258,0-4.516,0-6.775
						c3.268,0.051,6.534,0.105,9.801,0.162c15.086,0.264,27.349-2.883,36.453-9.725c9.453-7.08,14.244-16.852,14.244-28.705
						c0-11.792-4.778-21.352-14.207-28.133C373.559,65.215,361.284,62.468,346.18,63.165L346.18,63.165z M336.379,93.208
						c3.268-0.062,6.534-0.126,9.801-0.193c5.359-0.114,6.935,1.302,7.451,1.771c1.038,0.937,2.422,2.587,2.422,6.021
						c0,3.262-1.331,4.848-2.331,5.754c-1.395,1.264-3.933,1.916-7.542,1.943c-3.267,0.025-6.533,0.051-9.801,0.074
						C336.379,103.454,336.379,98.331,336.379,93.208L336.379,93.208z"/>
				</g>
				<g>
					<path d="M382.412,170.388c0-6.312,0-12.627,0-18.939c3.981-0.521,7.962-1.045,11.941-1.572c0-21.371,0-42.742,0-64.112
						c-3.979-0.528-7.96-1.052-11.941-1.574c0-6.335,0-12.669,0-19.004c32.588-1.875,65.142-4.409,97.636-7.599
						c0,13.198,0,26.396,0,39.594c-8.671,0.292-17.347,0.567-26.026,0.826c-0.333-4.246-0.667-8.486-1-12.72
						c-9.007,0.44-18.017,0.853-27.031,1.236c0,5.806,0,11.61,0,17.416c12.647-0.238,25.288-0.502,37.921-0.791
						c0,8.543,0,17.084,0,25.625c-12.633-0.217-25.273-0.414-37.921-0.592c0,6.979,0,13.957,0,20.938
						c9.116,0.389,18.229,0.807,27.337,1.254c0.334-4.234,0.668-8.477,1.002-12.725c8.629,0.26,17.253,0.535,25.873,0.826
						c0,13.176,0,26.352,0,39.527C447.656,174.804,415.051,172.267,382.412,170.388z"/>
					<path d="M475.479,62.542c0,10.093,0,20.185,0,30.278c-5.736,0.231-11.476,0.453-17.216,0.667
						c-0.333-4.271-0.666-8.537-1-12.796c-11.942,0.677-23.894,1.297-35.85,1.859c0,8.547,0,17.093,0,25.638
						c12.649-0.162,25.292-0.342,37.926-0.537c0,5.547,0,11.096,0,16.645c-12.634-0.125-25.276-0.24-37.926-0.346
						c0,9.713,0,19.426,0,29.141c12.059,0.568,24.111,1.195,36.156,1.879c0.334-4.26,0.668-8.525,1.002-12.799
						c5.688,0.213,11.376,0.434,17.062,0.662c0,10.07,0,20.141,0,30.211c-29.506-2.629-59.059-4.756-88.641-6.381
						c0-3.916,0-7.832,0-11.75c3.98-0.504,7.961-1.012,11.939-1.523c0-23.713,0-47.426,0-71.14
						c-3.979-0.511-7.959-1.019-11.939-1.523c0-3.939,0-7.878,0-11.817c3.98-0.219,7.961-0.446,11.939-0.684
						C424.476,66.705,449.995,64.811,475.479,62.542 M484.614,52.554c-3.044,0.328-6.089,0.649-9.135,0.964
						c-25.484,2.639-51.003,4.843-76.547,6.612c-3.979,0.275-7.959,0.541-11.939,0.795c-3.053,0.195-6.107,0.384-9.161,0.567
						c0,2.635,0,5.27,0,7.904c0,3.899,0,7.799,0,11.698c0,2.174,0,4.348,0,6.521c2.474,0.334,4.947,0.668,7.42,1.005
						c1.508,0.204,3.015,0.41,4.522,0.615c0,19.055,0,38.11,0,57.167c-1.508,0.205-3.015,0.41-4.522,0.615
						c-2.473,0.336-4.946,0.672-7.42,1.004c0,2.174,0,4.348,0,6.521c0,3.877,0,7.754,0,11.631c0,2.635,0,5.27,0,7.904
						c3.055,0.184,6.108,0.371,9.161,0.566c29.582,1.893,59.135,4.367,88.641,7.424c3.045,0.316,6.09,0.637,9.135,0.965
						c0-3.053,0-6.107,0-9.16c0-10.221,0-20.443,0-30.664c0-3.055,0-6.107,0-9.162c-3.045-0.082-6.09-0.162-9.135-0.24
						c-5.686-0.146-11.373-0.287-17.062-0.424c-2.828-0.068-5.656-0.135-8.484-0.199c-0.212,2.67-0.423,5.338-0.634,8.004
						c-0.123,1.551-0.246,3.1-0.368,4.648c-6.172-0.258-12.346-0.504-18.521-0.738c0-4.213,0-8.424,0-12.637
						c9.596,0.195,19.188,0.406,28.774,0.631c3.047,0.072,6.094,0.146,9.141,0.221c0-2.975,0-5.949,0-8.924
						c0-5.629,0-11.256,0-16.885c0-1.828,0-3.656,0-5.484c2.333-0.059,4.666-0.117,6.999-0.178c3.046-0.078,6.091-0.158,9.135-0.238
						c0-3.053,0-6.106,0-9.159c0-10.244,0-20.488,0-30.733C484.614,58.66,484.614,55.606,484.614,52.554L484.614,52.554z
						 M430.565,90.542c6.072-0.229,12.144-0.471,18.213-0.723c0.123,1.548,0.245,3.096,0.367,4.645
						c0.123,1.556,0.246,3.111,0.369,4.669c-6.314,0.175-12.631,0.342-18.949,0.5C430.565,96.604,430.565,93.574,430.565,90.542
						L430.565,90.542z"/>
				</g>
			</g>
		</g>
		<g>
			<g>
				<g>
					<path fill="#407CCA" d="M52.128,172.628c-9.021,0.783-17.293,0.201-24.59-1.916c-7.32-2.119-13.512-5.555-18.406-10.281
						c-0.141-0.137-0.282-0.273-0.423-0.41c0-8.492,0-16.986,0-25.479c6.731-0.205,13.464-0.398,20.2-0.586
						c0.83,5.316,1.659,10.609,2.489,15.881c2.055,1.385,4.817,2.492,8.223,3.293c3.701,0.877,7.909,1.168,12.508,0.904
						c5.777-0.334,10.186-1.639,13.101-3.855c2.845-2.164,4.228-4.838,4.228-8.221c0-3.498-1.324-6.18-4.047-8.234
						c-2.879-2.17-8.091-4.24-15.491-6.205c-13.388-3.393-23.696-7.834-30.632-13.15c-7.173-5.48-10.808-13.305-10.808-22.937
						c0-9.54,4.08-17.186,12.131-22.395c7.915-5.135,17.967-7.063,29.882-6.163c8.777,0.77,16.879,2.674,24.098,5.576
						c7.235,2.912,13.412,6.484,18.357,10.639c0.167,0.142,0.335,0.282,0.502,0.423c0,7.312,0,14.626,0,21.939
						c-6.552-0.141-13.102-0.291-19.651-0.449c-1.011-4.796-2.021-9.613-3.032-14.451c-1.788-0.989-4.32-1.934-7.539-2.823
						c-3.61-0.997-7.5-1.629-11.561-1.86c-5.78-0.331-10.268,0.52-13.338,2.597c-2.989,2.02-4.441,4.712-4.441,8.188
						c0,3.147,1.509,5.737,4.612,7.866c3.369,2.314,9.35,4.848,17.781,7.426c12.475,3.387,22.146,7.639,28.684,12.707
						c6.704,5.207,10.104,11.977,10.104,20.33c0,8.76-4.047,15.914-12.025,21.564C75.214,168.079,64.811,171.519,52.128,172.628z"/>
					<path fill="#FFFFFF" d="M50.512,64.292c8.617,0.736,16.465,2.564,23.548,5.402c7.082,2.84,13.038,6.276,17.862,10.331
						c0,6.686,0,13.371,0,20.057c-5.622-0.131-11.242-0.271-16.861-0.418c-0.975-4.619-1.95-9.256-2.924-13.915
						c-1.95-1.198-4.8-2.312-8.545-3.353c-3.746-1.042-7.722-1.697-11.925-1.946c-6.156-0.366-10.91,0.546-14.269,2.813
						c-3.357,2.265-5.035,5.391-5.035,9.321c0,3.637,1.756,6.69,5.267,9.096c3.509,2.406,9.573,4.973,18.191,7.594
						c12.36,3.332,21.74,7.434,28.132,12.387c6.39,4.961,9.587,11.352,9.587,19.363c0,8.369-3.801,15.105-11.397,20.482
						c-7.595,5.367-17.604,8.648-30.015,9.705c-8.874,0.752-16.883,0.168-24.031-1.922c-7.15-2.086-13.104-5.396-17.866-9.996
						c0-7.76,0-15.521,0-23.281c5.787-0.191,11.575-0.373,17.365-0.549c0.794,5.1,1.589,10.182,2.384,15.24
						c2.253,1.648,5.316,2.926,9.188,3.83c3.87,0.906,8.189,1.197,12.96,0.912c6.155-0.369,10.836-1.787,14.042-4.227
						c3.207-2.441,4.812-5.527,4.812-9.316c0-3.881-1.529-6.951-4.58-9.256c-3.054-2.305-8.403-4.451-16.043-6.494
						c-13.283-3.395-23.326-7.734-30.14-12.959C13.404,107.981,10.001,100.657,10,91.504c0-9.051,3.838-16.218,11.523-21.2
						C29.21,65.308,38.869,63.439,50.512,64.292 M50.512,61.458c-0.007,0-0.014-0.001-0.021-0.002s-0.013-0.001-0.02-0.001
						c-12.245-0.953-22.597,1.014-30.775,6.31c-8.456,5.458-12.74,13.52-12.74,23.595c0,10.156,3.833,18.414,11.398,24.187
						c7.088,5.426,17.568,9.932,31.157,13.348c7.162,1.887,12.188,3.859,14.906,5.908c2.364,1.781,3.514,4.133,3.514,7.211
						c0,2.98-1.158,5.23-3.643,7.119c-2.641,2.008-6.732,3.188-12.16,3.488c-4.445,0.246-8.5-0.045-12.053-0.893
						c-2.97-0.705-5.407-1.641-7.265-2.785c-0.733-4.65-1.467-9.316-2.201-14.002c-0.129-0.828-0.259-1.656-0.389-2.486
						c-0.875,0.023-1.75,0.045-2.625,0.066c-5.79,0.146-11.579,0.299-17.365,0.457c-1.015,0.029-2.03,0.057-3.044,0.084
						c0,1.018,0,2.035,0,3.053c0,7.805,0,15.607,0,23.41c0,0.41,0,0.818,0,1.229c0.282,0.271,0.564,0.545,0.846,0.816
						c5.047,4.875,11.421,8.402,18.948,10.564c7.474,2.152,15.935,2.729,25.147,1.906c13.013-1.166,23.719-4.736,31.814-10.463
						c8.394-5.947,12.651-13.453,12.651-22.643c0-8.734-3.573-15.822-10.619-21.297c-6.705-5.199-16.561-9.557-29.286-13.043
						c-8.258-2.543-14.085-5.014-17.321-7.238c-2.7-1.855-3.957-3.978-3.957-6.641c0-3.027,1.223-5.28,3.849-7.057
						c2.797-1.896,6.972-2.677,12.407-2.378c3.938,0.216,7.705,0.82,11.195,1.777c2.729,0.75,4.922,1.529,6.542,2.334
						c0.886,4.252,1.773,8.487,2.66,12.707c0.157,0.748,0.314,1.494,0.471,2.24c0.842,0.02,1.684,0.039,2.526,0.057
						c5.619,0.125,11.24,0.244,16.861,0.355c1.018,0.02,2.035,0.041,3.053,0.061c0-0.887,0-1.771,0-2.658c0-6.659,0-13.317,0-19.976
						c0-0.394,0-0.786,0-1.18c-0.335-0.28-0.67-0.562-1.005-0.843c-5.09-4.277-11.434-7.952-18.852-10.948
						C67.729,64.226,59.449,62.262,50.512,61.458L50.512,61.458z"/>
				</g>
				<g>
					<path fill="#407CCA" d="M145.603,166.509c-15.434,0.688-28.257-3.068-38.119-11.805c-9.827-8.678-14.808-20.686-14.808-35.238
						c0-1.098,0-2.197,0-3.295c0-14.502,4.953-26.507,14.727-35.235c9.811-8.787,22.661-12.564,38.2-11.873
						c8.866,0.393,16.991,2.04,24.15,4.866c7.161,2.827,13.173,6.439,17.872,10.772c0.128,0.117,0.255,0.234,0.383,0.352
						c0,6.461,0,12.922,0,19.381c-6.526-0.045-13.052-0.1-19.577-0.162c-0.812-4.242-1.624-8.493-2.436-12.751
						c-1.993-1.565-4.507-2.858-7.481-3.853c-3.177-1.062-7.001-1.665-11.367-1.789c-9.34-0.271-16.313,2.198-21.321,7.725
						c-5.042,5.557-7.598,13.167-7.598,22.489c0,1.107,0,2.213,0,3.32c0,9.326,2.545,16.961,7.566,22.561
						c4.982,5.568,11.841,8.059,20.969,7.793c4.23-0.121,8.146-0.732,11.638-1.811c3.226-0.992,5.776-2.271,7.589-3.811
						c0.814-4.27,1.628-8.531,2.441-12.785c6.525-0.062,13.051-0.117,19.577-0.162c0,6.457,0,12.916,0,19.373
						c-0.124,0.117-0.248,0.234-0.372,0.35c-4.658,4.385-10.665,8.002-17.854,10.787
						C162.594,164.491,154.459,166.118,145.603,166.509z"/>
					<path fill="#FFFFFF" d="M145.603,70.32c8.687,0.374,16.529,1.955,23.52,4.713c6.992,2.758,12.778,6.231,17.355,10.455
						c0,5.905,0,11.812,0,17.716c-5.58-0.043-11.158-0.094-16.737-0.15c-0.771-4.028-1.542-8.061-2.314-12.101
						c-2.21-1.829-5-3.304-8.369-4.432c-3.365-1.126-7.336-1.761-11.912-1.896c-9.767-0.293-17.281,2.367-22.547,8.184
						c-5.267,5.807-7.899,13.613-7.899,23.281c0,1.109,0,2.219,0,3.328c0,9.668,2.62,17.498,7.862,23.348
						c5.241,5.859,12.64,8.545,22.201,8.258c4.42-0.133,8.468-0.77,12.143-1.906c3.677-1.133,6.516-2.609,8.522-4.434
						c0.771-4.041,1.543-8.074,2.314-12.102c5.579-0.059,11.157-0.109,16.737-0.152c0,5.906,0,11.811,0,17.717
						c-4.527,4.264-10.296,7.738-17.315,10.455c-7.021,2.717-14.873,4.277-23.56,4.652c-15.06,0.652-27.39-2.973-36.996-11.484
						c-9.606-8.486-14.405-20.062-14.405-34.307c0-1.096,0-2.191,0-3.287c0-14.197,4.775-25.775,14.329-34.309
						C118.085,73.308,130.441,69.662,145.603,70.32 M145.603,67.808c-15.986-0.729-29.217,3.139-39.328,12.195
						c-10.038,8.962-15.125,21.29-15.125,36.167c0,1.1,0,2.199,0,3.301c0,14.93,5.116,27.26,15.211,36.172
						c10.162,9.002,23.364,12.848,39.242,12.123c9.07-0.412,17.414-2.088,24.798-4.949c7.397-2.869,13.586-6.598,18.393-11.119
						c0.247-0.232,0.494-0.465,0.742-0.697c0-0.303,0-0.604,0-0.906c0-5.895,0-11.791,0-17.688c0-0.812,0-1.623,0-2.436
						c-1.02,0.006-2.039,0.014-3.058,0.02c-5.58,0.037-11.158,0.08-16.737,0.127c-0.874,0.008-1.747,0.016-2.62,0.023
						c-0.134,0.697-0.268,1.396-0.401,2.096c-0.722,3.775-1.443,7.557-2.165,11.344c-1.624,1.277-3.858,2.355-6.658,3.215
						c-3.332,1.025-7.078,1.607-11.136,1.719c-8.608,0.24-15.063-2.105-19.738-7.326c-4.824-5.381-7.271-12.746-7.271-21.775
						c0-1.105,0-2.211,0-3.316c0-9.021,2.455-16.361,7.298-21.696c4.7-5.186,11.272-7.511,20.095-7.266
						c4.179,0.114,7.82,0.682,10.822,1.684c2.598,0.866,4.813,1.971,6.598,3.293c0.718,3.77,1.436,7.532,2.154,11.29
						c0.133,0.699,0.267,1.396,0.401,2.096c0.874,0.008,1.747,0.014,2.62,0.021c5.579,0.049,11.157,0.09,16.737,0.127
						c1.019,0.006,2.038,0.014,3.058,0.02c0-0.812,0-1.623,0-2.436c0-5.896,0-11.792,0-17.688c0-0.307,0-0.613,0-0.92
						c-0.255-0.234-0.51-0.469-0.764-0.703c-4.844-4.464-11.03-8.182-18.389-11.091C163.024,69.919,154.688,68.221,145.603,67.808
						L145.603,67.808z"/>
				</g>
				<g>
					<path fill="#407CCA" d="M243.691,164.366c-15.566-0.01-28.324-4.234-37.92-12.854c-9.542-8.561-14.379-19.713-14.379-33.053
						c0-0.449,0-0.9,0-1.35c0-13.256,4.823-24.386,14.336-32.987c9.569-8.662,22.315-12.908,37.886-12.916
						c15.616-0.003,28.451,4.23,38.147,12.887c9.645,8.599,14.535,19.741,14.535,33.014c0,0.451,0,0.902,0,1.352
						c-0.001,13.361-4.878,24.525-14.499,33.082C272.127,160.157,259.306,164.37,243.691,164.366z M243.614,87.421
						c-8.994,0.002-15.502,2.563-19.896,7.895c-4.472,5.417-6.739,12.716-6.739,21.679c0,0.486,0,0.973,0,1.459
						c0,9.039,2.292,16.389,6.813,21.83c4.444,5.352,10.955,7.924,19.898,7.926c9.054,0.002,15.653-2.568,20.173-7.926
						c4.595-5.436,6.924-12.787,6.924-21.83c0-0.486,0-0.973,0-1.459c0-8.881-2.354-16.158-6.997-21.614
						C259.216,90.001,252.617,87.419,243.614,87.421z"/>
					<path fill="#FFFFFF" d="M243.614,72.408c15.227-0.003,27.559,4.067,36.995,12.496c9.438,8.418,14.158,19.185,14.158,32.207
						c0,0.449,0,0.9,0,1.35c-0.001,13.104-4.703,23.893-14.12,32.271c-9.41,8.385-21.732,12.438-36.956,12.434
						c-15.176-0.008-27.431-4.07-36.766-12.457c-9.336-8.379-14.004-19.158-14.004-32.248c0-0.449,0-0.9,0-1.35
						c0-13.006,4.656-23.765,13.965-32.184C216.196,76.496,228.438,72.416,243.614,72.408 M243.691,149.411
						c9.517,0.002,16.666-2.789,21.448-8.455c4.786-5.664,7.178-13.17,7.178-22.502c0-0.486,0-0.973,0-1.459
						c0-9.168-2.418-16.605-7.254-22.288c-4.834-5.686-11.986-8.489-21.449-8.486c-9.466,0.002-16.525,2.79-21.18,8.436
						c-4.657,5.643-6.984,13.094-6.984,22.338c0,0.486,0,0.973,0,1.459c0,9.326,2.354,16.828,7.062,22.492
						C227.218,146.612,234.277,149.409,243.691,149.411 M243.614,70.006c-16.035,0.009-29.172,4.379-39.045,13.313
						c-9.759,8.82-14.705,20.224-14.705,33.789c0,0.451,0,0.902,0,1.352c0,13.654,4.963,25.08,14.752,33.861
						c9.9,8.889,23.047,13.236,39.075,13.244c16.075,0.004,29.283-4.33,39.257-13.211c9.871-8.777,14.876-20.219,14.877-33.893
						c0-0.451,0-0.902,0-1.354c0-13.588-5.018-25.006-14.913-33.826C272.914,74.359,259.692,70.003,243.614,70.006L243.614,70.006z
						 M243.691,147.009c-8.387-0.002-14.477-2.4-18.616-7.387c-4.357-5.242-6.566-12.369-6.566-21.168c0-0.486,0-0.973,0-1.459
						c0-8.723,2.185-15.799,6.494-21.021c4.09-4.963,10.178-7.351,18.611-7.352c8.452-0.003,14.636,2.41,18.904,7.432
						c4.473,5.255,6.74,12.306,6.74,20.941c0,0.486,0,0.973,0,1.459c0,8.799-2.243,15.922-6.669,21.162
						C258.374,144.61,252.193,147.011,243.691,147.009L243.691,147.009z"/>
				</g>
				<g>
					<path fill="#407CCA" d="M291.204,163.61c0-4.314,0-8.627,0-12.941c3.985-0.551,7.971-1.1,11.956-1.645
						c0-20.805,0-41.611,0-62.417c-3.985-0.545-7.971-1.093-11.956-1.645c0-4.333,0-8.667,0-13.001
						c18.33-0.391,36.657-1.005,54.975-1.841c13.175-0.607,23.743,1.678,31.417,7.152c7.729,5.493,11.646,13.272,11.646,22.913
						c-0.001,9.686-3.92,17.641-11.653,23.395c-7.67,5.727-18.236,8.398-31.41,8.217c-5.812-0.078-11.626-0.15-17.44-0.215
						c0,6,0,12,0,18c4.011,0.732,8.02,1.477,12.029,2.234c0,4.465,0,8.93,0,13.393C324.251,164.497,307.729,163.962,291.204,163.61z
						 M346.178,114.929c5.803-0.016,10.213-1.326,13.109-3.93c2.962-2.662,4.4-5.996,4.4-10.152c0-4.25-1.444-7.618-4.416-10.263
						c-2.896-2.576-7.301-3.768-13.094-3.595c-5.812,0.171-11.626,0.328-17.44,0.471c0,9.171,0,18.342,0,27.512
						C334.552,114.958,340.366,114.944,346.178,114.929z"/>
					<path fill="#FFFFFF" d="M346.178,71.384c12.847-0.576,22.982,1.618,30.402,6.914c7.423,5.282,11.134,12.654,11.134,21.921
						c0,9.314-3.711,16.848-11.134,22.375c-7.42,5.539-17.556,8.1-30.402,7.939c-6.321-0.078-12.645-0.148-18.969-0.211
						c0,6.75,0,13.498,0,20.248c4.01,0.73,8.02,1.477,12.028,2.236c0,3.693,0,7.389,0,11.082
						c-15.497-0.643-30.999-1.129-46.505-1.463c0-3.576,0-7.154,0-10.73c3.985-0.549,7.971-1.094,11.956-1.635
						c0-21.496,0-42.994,0-64.491c-3.985-0.541-7.971-1.085-11.956-1.634c0-3.597,0-7.194,0-10.792
						c3.985-0.086,7.971-0.182,11.956-0.287C318.523,72.49,332.353,71.999,346.178,71.384 M327.209,116.218
						c6.324-0.008,12.647-0.016,18.969-0.025c6.268-0.01,11.011-1.436,14.222-4.324c3.21-2.885,4.816-6.586,4.816-11.049
						c0-4.552-1.606-8.276-4.816-11.131c-3.211-2.857-7.954-4.157-14.222-3.963c-6.321,0.194-12.645,0.37-18.969,0.529
						C327.209,96.242,327.209,106.229,327.209,116.218 M346.178,68.858c-13.825,0.648-27.655,1.166-41.489,1.554
						c-3.985,0.111-7.971,0.213-11.956,0.303c-1.02,0.023-2.039,0.046-3.058,0.067c0,0.809,0,1.618,0,2.427
						c0,3.593,0,7.185,0,10.777c0,0.667,0,1.335,0,2.002c0.825,0.115,1.651,0.229,2.477,0.345c3.16,0.438,6.32,0.875,9.479,1.311
						c0,20.116,0,40.231,0,60.348c-3.16,0.434-6.32,0.871-9.48,1.311c-0.825,0.113-1.65,0.229-2.476,0.344c0,0.668,0,1.336,0,2.002
						c0,3.572,0,7.145,0,10.717c0,0.809,0,1.617,0,2.426c1.019,0.021,2.038,0.045,3.058,0.068
						c15.506,0.35,31.008,0.863,46.505,1.541c1.02,0.045,2.038,0.09,3.057,0.137c0-0.84,0-1.678,0-2.518c0-3.705,0-7.408,0-11.113
						c0-0.693,0-1.387,0-2.08c-0.826-0.156-1.652-0.311-2.479-0.467c-3.184-0.596-6.366-1.184-9.55-1.764c0-5.25,0-10.5,0-15.75
						c5.305,0.066,10.609,0.139,15.912,0.215c13.556,0.203,24.462-2.551,32.419-8.488c8.076-6.008,12.17-14.314,12.17-24.42
						c0-10.056-4.089-18.176-12.157-23.906C370.649,70.572,359.739,68.217,346.178,68.858L346.178,68.858z M330.266,88.667
						c5.305-0.127,10.609-0.265,15.912-0.415c5.421-0.154,9.335,0.886,11.965,3.228c2.703,2.406,4.019,5.489,4.019,9.397
						c0,3.805-1.305,6.844-3.988,9.256c-2.632,2.365-6.555,3.512-11.995,3.533c-5.303,0.021-10.607,0.041-15.912,0.059
						C330.266,105.37,330.266,97.019,330.266,88.667L330.266,88.667z"/>
				</g>
				<g>
					<path fill="#407CCA" d="M385.461,167.587c0-4.688,0-9.375,0-14.062c3.98-0.486,7.96-0.975,11.939-1.467
						c0-22.826,0-45.65,0-68.475c-3.979-0.493-7.959-0.981-11.939-1.468c0-4.71,0-9.419,0-14.129
						c30.548-1.927,61.062-4.473,91.523-7.639c0,11.231,0,22.461,0,33.692c-6.714,0.288-13.43,0.564-20.148,0.828
						c-0.334-4.287-0.667-8.566-1-12.839c-10.962,0.669-21.931,1.287-32.904,1.853c-0.001,7.633-0.001,15.267,0,22.9
						c12.646-0.211,25.286-0.445,37.917-0.701c0,6.586,0,13.17,0,19.756c-12.631-0.176-25.271-0.338-37.917-0.482
						c-0.001,8.803-0.001,17.605,0,26.408c11.075,0.572,22.146,1.197,33.21,1.875c0.334-4.275,0.668-8.557,1.002-12.846
						c6.667,0.264,13.332,0.539,19.995,0.826c0,11.209,0,22.418,0,33.625C446.626,172.069,416.06,169.517,385.461,167.587z"/>
					<path fill="#FFFFFF" d="M475.462,62.022c0,10.187,0,20.375,0,30.563c-5.735,0.26-11.474,0.511-17.213,0.752
						c-0.333-4.296-0.666-8.585-0.999-12.866c-11.941,0.764-23.89,1.463-35.845,2.099c0,8.542,0,17.083,0,25.625
						c12.647-0.184,25.288-0.387,37.92-0.607c0,5.584,0,11.166,0,16.75c-12.632-0.143-25.272-0.271-37.92-0.391
						c0,9.709,0,19.416,0,29.123c12.058,0.643,24.107,1.352,36.15,2.123c0.334-4.283,0.668-8.574,1.002-12.871
						c5.688,0.24,11.374,0.488,17.058,0.748c0,10.166,0,20.33,0,30.496c-29.498-2.967-59.047-5.369-88.627-7.205
						c0-3.891,0-7.783,0-11.676c3.98-0.48,7.96-0.963,11.938-1.449c0-23.609,0-47.221,0-70.833
						c-3.979-0.486-7.958-0.969-11.938-1.448c0-3.914,0-7.829,0-11.744c3.98-0.247,7.96-0.504,11.938-0.771
						C424.468,66.722,449.984,64.583,475.462,62.022 M478.506,58.662c-1.015,0.109-2.029,0.217-3.044,0.325
						c-25.479,2.7-50.994,4.956-76.535,6.766c-3.979,0.282-7.958,0.554-11.938,0.814c-1.018,0.066-2.035,0.132-3.053,0.198
						c0,0.878,0,1.756,0,2.635c0,3.899,0,7.799,0,11.698c0,0.724,0,1.448,0,2.173c0.824,0.103,1.648,0.204,2.473,0.307
						c3.156,0.391,6.312,0.784,9.466,1.18c0,22.042,0,44.084,0,66.125c-3.154,0.396-6.31,0.789-9.466,1.182
						c-0.824,0.102-1.648,0.203-2.473,0.305c0,0.725,0,1.449,0,2.174c0,3.877,0,7.754,0,11.631c0,0.879,0,1.758,0,2.635
						c1.018,0.066,2.035,0.131,3.053,0.197c29.58,1.938,59.129,4.469,88.627,7.598c1.016,0.107,2.03,0.215,3.045,0.324
						c0-1.018,0-2.035,0-3.053c0-10.223,0-20.443,0-30.664c0-1.018,0-2.037,0-3.055c-1.015-0.041-2.029-0.082-3.045-0.123
						c-5.684-0.227-11.37-0.447-17.058-0.658c-0.942-0.035-1.886-0.07-2.828-0.105c-0.07,0.902-0.14,1.805-0.21,2.705
						c-0.264,3.375-0.527,6.746-0.792,10.111c-10.085-0.588-20.177-1.135-30.271-1.639c0-7.895,0-15.789,0-23.684
						c11.629,0.16,23.253,0.336,34.869,0.525c1.016,0.018,2.031,0.033,3.046,0.051c0-0.988,0-1.979,0-2.967
						c0-5.613,0-11.227,0-16.84c0-0.988,0-1.977,0-2.967c-1.015,0.023-2.03,0.047-3.046,0.07
						c-11.616,0.264-23.24,0.506-34.869,0.727c0-6.723,0-13.445,0-20.167c9.993-0.498,19.982-1.037,29.966-1.618
						c0.264,3.364,0.526,6.733,0.789,10.106c0.07,0.9,0.141,1.802,0.211,2.704c0.942-0.034,1.885-0.069,2.827-0.104
						c5.739-0.212,11.478-0.433,17.213-0.661c1.015-0.041,2.029-0.082,3.044-0.123c0.001-1.018,0.001-2.035,0-3.053
						c0.001-10.244,0.001-20.487,0-30.731C478.507,60.697,478.507,59.679,478.506,58.662
						C478.507,58.662,478.507,58.662,478.506,58.662z"/>
				</g>
			</g>
		</g>
	</g>
	<g>
		<g>
			<path fill="#FFFFFF" d="M15.117,110.39c4.457,3.785,8.91,7.572,13.36,11.363c65.146-3.01,130.325-5.572,195.533-7.686
				C154.403,112.329,84.77,111.103,15.117,110.39z"/>
			<path fill="#FFFFFF" d="M461.241,121.819c0.06-3.766,0.118-7.529,0.178-11.295c-65.978,1.057-131.932,2.57-197.856,4.545
				C329.481,116.86,395.375,119.11,461.241,121.819z"/>
		</g>
	</g>
</g>
<g>
	<g>
		<polygon fill="#FFFFFF" points="245.003,70.61 242.808,92.598 240.613,70.61 		"/>
	</g>
	<g>
		<polygon fill="#FFFFFF" points="240.613,165.218 242.808,143.229 245.003,165.218 		"/>
	</g>
</g>
</svg>
